<?xml version="1.0" standalone="no"?>
<!DOCTYPE svg PUBLIC "-//W3C//DTD SVG 1.1//EN" "http://www.w3.org/Graphics/SVG/1.1/DTD/svg11.dtd">
<svg xmlns="http://www.w3.org/2000/svg">
<metadata>Generated by Fontastic.me</metadata>
<defs>
<font id="baba-retail" horiz-adv-x="512">
<font-face font-family="baba-retail" units-per-em="512" ascent="480" descent="-32"/>
<missing-glyph horiz-adv-x="512" />

<glyph unicode="&#97;" d="M51 139c3 12 7 25 12 38-15 8-27 13-27 13 0 0 0 13 4 29 2 8 11 35 11 35 12-6 24-11 36-19 11 23 25 45 41 68l-25 16c-3 2-3 5-2 8 2 2 6 3 8 1l27-16c3 5 7 10 11 15l-28 17c-3 2-4 6-2 9 1 3 6 3 8 2l31-19c1 1 2 2 3 3 3 3 6 7 9 10l-26 16c-2 2-3 5-1 8 1 2 5 3 7 1l28-17c5 5 10 9 14 14l-25 13c-2 2-3 5-2 7 2 3 5 4 8 3l25-15c16 14 33 26 49 37-25 13-45 22-50 23-26-16-52-38-77-66-95-110-95-233-80-296 3 17 6 38 13 62z m208 328c15-6 29-10 44-18 12 7 25 12 35 16 25 11 46 17 62 22-37 4-93 2-152-22 7 2 11 2 11 2z m-81-188c-1-3-5-3-7-2l-30 19c-17-22-30-46-41-68 22-13 45-31 74-56 23-20 45-46 63-70 30 21 62 48 93 83 31 35 54 69 72 102-19 23-44 52-66 71-20 18-49 36-76 50-16-11-33-24-50-38l27-16c2-1 3-4 2-7-2-3-5-3-7-2l-30 17c-4-4-10-9-14-13l28-18c3-2 3-5 2-8-2-2-5-3-8-1l-31 19c-3-3-7-7-10-12-1 0-1-1-1-1l32-20c3-1 4-5 2-8-1-3-5-4-8-2l-34 21c-4-5-8-10-12-15l29-18c2-2 3-5 1-7z m255 200l0 0 0 0c0-1-38-6-90-28-7-3-15-6-23-10 15-9 33-22 55-41 26-22 42-40 55-56 23 57 27 98 27 107-5 11-10 19-14 22-2 2-5 4-10 6z m-273-422c9 4 18 8 28 13-14 21-33 45-49 60-17 15-41 29-62 41-21-61-25-111-26-127 2-3 4-6 6-7 2-2 8-5 15-6 12 0 44 6 88 26z m36 1c-11-6-22-11-32-16-16-7-31-12-45-17 26 0 57 3 90 13-1 2-6 10-13 20z m272 361c-3-14-7-32-13-52-4-11-8-24-14-37 8-10 15-20 21-30 0 0-1-8-7-27-6-15-16-35-16-35 0 0-10 15-26 35-17-31-40-64-70-98-32-36-65-64-95-86 8-10 15-20 21-28 39 19 78 48 113 91 95 114 99 210 86 267z m-205-361c-3-2-6-3-10-5 3 2 7 3 10 5z"/>
<glyph unicode="&#98;" d="M54 143c11 41 31 98 70 154l-31 18c-4 2-4 6-2 9 1 2 5 3 8 2l32-20c5 6 9 13 14 19l-31 19c-3 2-4 6-3 9 2 3 6 4 10 3l34-20c1 2 2 3 3 4 5 5 11 11 16 16l-32 19c-3 2-4 6-2 9 2 3 6 4 9 2l35-20c5 5 11 10 17 15l-25 15c-2 1-3 5-2 8 2 3 5 4 9 2l27-17c45 37 92 60 126 75 24 10 46 16 61 21-63 7-184-7-276-113-95-108-95-229-80-291 2 17 7 37 13 62z m418 272c-3-14-7-31-14-51-15-46-46-117-110-189-63-72-130-110-175-131-16-7-31-12-44-16 67-1 174 23 258 124 93 113 98 207 85 263z m-306-353c43 19 108 57 168 125 111 126 123 247 124 263-5 11-10 19-13 22-2 2-5 4-10 6l0-2c-1 0-38-5-88-26-33-14-75-35-118-69l32-20c2-2 3-5 2-8-2-3-5-4-9-2l-35 21c-6-5-12-9-18-15l31-19c3-1 4-5 2-9-1-3-5-4-9-2l-33 21c-6-6-12-12-18-19-1 0-1-1-2-1l40-24c3-2 4-6 3-9-2-3-7-4-10-3l-41 25c-5-6-10-12-15-19l33-19c3-2 3-6 2-9-2-3-6-3-9-2l-33 21c-72-104-82-216-84-240 3-3 4-6 6-8 2-2 7-4 15-6 12 1 44 7 87 27z"/>
<glyph unicode="&#99;" d="M353 71c0 1-1 2-2 3 34 21 68 42 102 63 1-5 2-9 3-15-33-16-68-34-103-51z m38 132c3-4 6-8 8-13 0 0 0-1 0-2-4-6-9-12-13-18-7-10-14-21-21-31-8-12-16-23-24-35-2-3-4-6-6-9-1 1-1 1-2 2-1 1-1 1 0 3 8 14 15 28 23 41 12 20 23 40 34 60 0 0 1 1 1 2z m-42-127c0 1-1 2-2 2 32 25 64 50 96 75 1-5 2-9 3-14 0-1 0-1-1-2-8-5-16-10-23-15-24-15-48-31-73-46z m56 116c3-6 5-10 7-15-24-29-49-58-74-87-2 2-2 2-1 5 14 19 27 38 41 57 8 13 17 25 26 37 0 1 1 2 1 3z m-63-107c-2 3-2 3-1 5 26 29 51 59 76 88 1 0 1 0 1 1 1-2 2-4 3-6 1-2 2-4 3-7 0-1 0-2-1-2-17-17-34-33-51-50-10-9-20-19-29-28-1 0-1 0-1-1z m3-4c0 1-1 1-2 2 29 28 58 55 87 82 1-4 3-9 4-13 0 0 0-1-1-1-29-24-58-47-87-70 0 0 0 0-1 0z m125 23c0-5 0-9 1-14-1 0-2 0-3-1-35-9-70-18-105-27-2-1-3 0-4 2 37 13 74 27 111 40z m-7 16c1-4 1-9 2-13-7-3-13-5-20-8-29-11-57-21-86-32-2-1-3-1-4 1 36 18 72 35 108 52z m-150-37c5 4 10 8 15 12 10-12 20-25 30-37-5-4-10-8-15-12-10 12-20 25-30 37z m28-40c-8-5-16-6-24-3-9 3-15 10-16 20-1 9 3 18 10 22 10-13 19-26 30-39z m113 365c-11 49-42 79-91 91-9 2-19 2-28 3-7 0-13-1-19-1-5-1-10-2-15-3-64-19-105-60-123-124-11-37-7-73 13-107 5-7 11-14 17-22-1-1-2-2-3-3-11-12-21-24-31-36-13-15-26-30-40-45-1-1-3-2-4-2-16 7-35 3-48-13-18-21-37-43-56-64-8-9-15-19-16-31 0-4 0-7 0-10 1-1 1-2 1-3 10-30 46-39 66-16 23 26 45 51 67 77 10 13 12 30 3 44-2 3-1 5 1 7 20 23 40 46 60 70 5 4 9 10 13 15 2-2 3-2 4-3 29-20 61-25 94-19 36 6 66 23 91 49 38 42 57 90 44 146z m-36 37c-9-10-17-19-25-29-8 8-17 15-25 22 8 9 17 19 26 29 9-5 17-13 24-22z m-152-96c-9-10-19-21-28-32-8 7-16 14-24 21 9 11 19 22 28 33 8-7 16-14 24-22z m-12 36c9 9 18 19 26 29 8-6 16-14 24-21-8-9-17-19-26-29-7 7-16 14-24 21z m27-48c8-7 16-14 24-21-9-11-19-22-28-33-8 7-16 15-25 22 10 10 19 21 29 32z m12 14c8 10 17 20 26 30 8-7 16-15 24-22-8-9-17-19-25-29-9 7-17 14-25 21z m38 44c8 10 16 19 24 29 9-7 17-14 25-21-8-10-17-19-25-29-8 7-16 14-24 21z m26-48c9-7 17-14 25-21-9-10-17-20-26-30-8 8-16 15-24 22 8 10 17 20 25 29z m12 14c9 10 17 19 25 29 8-7 17-14 25-21-9-10-17-19-25-29-8 7-16 14-25 21z m-30 122c0 1 1 1 2 1 12-1 24-3 35-7-8-9-15-18-23-27-8 7-16 14-25 22 4 4 7 8 11 11z m-22-26c8-7 16-14 24-21-8-9-16-19-25-28-7 6-16 14-24 21 8 9 16 19 25 28z m-36 15c1 1 2 1 3 2 8 4 14 3 19-5-8-9-17-19-25-28-6 6-13 12-21 18 8 4 16 9 24 13z m-39-25c8-7 16-14 24-21-9-9-17-19-26-29-7 7-15 14-23 21 6 10 15 20 25 29z m-50-88c3 15 8 29 15 42 7-6 14-12 21-18-10-10-19-21-30-33-1 1-3 2-4 4-1 2-2 4-2 5z m13-80c-6 10-10 21-13 33 0 1 1 3 1 4 3 3 5 6 8 8 8-7 17-14 25-22-7-7-14-15-21-23z m11-16c8 9 16 18 24 27 8-7 17-14 25-21-8-9-15-18-24-27-9 5-18 12-25 21z m73-35c-10 1-20 3-29 6 6 8 13 15 19 23 8-7 16-14 25-22-3-5-8-8-15-7z m26 22c-7 7-16 14-24 21 10 11 19 22 29 33 8-7 16-14 24-22-10-10-19-21-29-32z m27-13c-2-1-3-1-5-2-3-1-6-1-8 2 10 11 20 22 29 33 6-4 12-9 18-14-11-8-22-14-34-19z m49 30c-8 6-14 12-21 17 9 10 18 20 26 30 6-5 13-11 20-17-8-10-17-20-25-30z m46 80c-4-11-7-23-11-35-7 6-12 11-18 16 8 9 17 19 25 29 5-2 6-5 4-10z m0 42c-1-2-3-4-5-7-9 8-17 15-25 22 7 8 14 16 21 25 6-11 9-23 11-35 0-2-1-3-2-5z m-119-59c-9 7-17 14-25 21 8 10 17 20 26 30 8-7 16-15 24-22-8-9-17-19-25-29z m78-16c6-5 13-11 20-17-8-10-17-20-25-30-8 6-14 12-21 17"/>
<glyph unicode="&#100;" d="M505 400c-8 52-39 86-90 102-9 4-20 5-30 6-7 0-13 0-20 0-6 0-11-1-16-2-69-14-117-55-141-122-14-38-12-77 7-114 4-9 10-17 15-25-1-1-2-2-3-4-12-12-24-23-36-35-15-15-30-30-45-45-1-2-4-3-5-2-17 9-37 6-52-10-21-22-43-43-64-64-10-9-18-19-21-32 0-4 0-7 0-11 1-1 1-2 1-3 8-32 46-44 70-21 26 25 51 51 76 76 12 13 15 31 7 46-2 4-1 6 2 8 23 23 46 46 69 70 5 4 10 9 14 14 2-1 3-2 5-3 29-23 62-31 99-27 38 4 71 19 99 45 45 41 68 92 59 153z m-36 42c-10-10-19-20-29-29-8 8-16 17-24 25 9 9 19 19 29 29 10-6 17-15 24-25z m-168-91c-11-10-22-21-33-32-8 8-16 16-24 24 11 11 22 22 32 33 8-8 17-17 25-25z m-10 39c9 9 19 19 29 29 8-8 16-16 24-24-10-10-20-20-29-29-8 7-16 16-24 24z m24-53c8-8 17-16 25-24-11-11-22-22-33-33-8 8-16 16-25 25 11 10 22 21 33 32z m14 14c10 10 20 20 30 29 8-8 16-16 24-24-9-10-19-20-29-30-8 9-17 17-25 25z m44 44c9 9 19 19 28 29 8-9 17-17 25-25-10-9-19-19-29-28-8 7-16 16-24 24z m24-53c9-8 17-16 25-25-10-9-20-19-30-29-8 8-16 16-24 25 10 9 19 19 29 29z m14 14c10 9 19 19 29 29 8-8 16-17 24-25-9-9-19-19-29-29-7 8-16 17-24 25z m-23 132c0 1 2 1 3 1 12-2 25-5 36-11-9-9-17-17-26-26-8 8-16 16-25 25 4 3 8 7 12 11z m-25-26c8-8 16-16 24-24-10-10-19-19-29-29-7 8-16 17-24 25 9 9 19 19 29 28z m-37 19c1 0 2 0 3 1 9 4 15 3 20-6-10-9-20-19-29-28-6 6-13 13-21 21 9 4 18 8 27 12z m-44-24c8-8 16-16 24-24-10-10-20-19-29-29-8 8-16 16-24 24 8 11 18 20 29 29z m-59-90c4 16 9 30 18 44 7-7 14-14 21-21-11-11-22-22-34-33-1 1-3 3-4 5-1 2-2 4-1 5z m7-87c-6 12-10 24-11 37 0 1 1 3 2 4 2 3 5 6 8 9 8-9 17-17 25-26-8-7-16-15-24-24z m11-17c9 9 18 18 27 27 8-8 17-16 25-24-9-9-18-18-27-27-10 6-18 14-25 24z m75-43c-11 2-22 4-32 9 8 8 16 15 23 23 8-8 16-17 25-25-4-6-9-8-16-7z m29 22c-8 7-16 16-24 24 11 10 22 21 33 32 8-8 16-16 24-24-11-10-22-21-33-32z m28-16c-2-1-4-1-6-2-4-1-6 0-8 3 11 11 22 22 33 33 6-6 12-11 18-17-12-7-24-13-37-17z m54 28c-8 7-14 14-21 20 10 10 20 19 30 29 6-6 13-12 20-19-10-10-20-20-29-30z m55 82c-5-12-9-24-15-36-6 6-12 12-17 18 9 9 19 18 29 28 4-2 5-5 3-10z m4 45c-2-3-4-5-6-8-9 9-18 18-25 26 7 8 16 16 24 24 5-12 8-25 9-38 0-1-1-3-2-4z"/>
<glyph unicode="&#101;" d="M167 113c-2 3-4 5-7 8 92 70 183 140 275 210 5-14 9-27 14-41-92-58-186-118-282-177z m73 391c9-12 18-24 26-35 1-1 0-5-1-6-10-19-20-37-30-55-18-32-36-64-54-96-19-36-39-71-59-106-5-10-10-19-15-29-2 2-3 4-5 5-4 2-4 5-2 9 19 42 38 84 57 126 26 60 53 120 80 179 1 3 2 5 3 8z m-86-378c-2 3-4 5-7 7 85 80 169 160 254 240 5-13 10-26 15-39 0-1-1-4-3-5-21-17-42-34-64-50-64-51-129-102-195-153z m129 348c9-14 17-27 25-40-63-90-127-180-190-269-8 5-8 5-3 13 33 59 67 117 100 176 22 38 43 75 65 113 1 2 2 4 3 7z m-153-322c-7 6-7 6-2 12 64 91 129 183 194 274 0 1 1 2 2 3 3-6 6-11 9-16 4-6 7-12 10-18 2-3 2-6-1-9-44-51-89-103-133-155-26-29-51-59-76-89-1-1-2-1-3-2z m12-13c-3 3-5 5-7 8 76 86 151 173 226 258 5-12 11-25 17-37 0-1-1-3-2-4-78-74-155-149-233-223 0 0-1-1-1-2z m352 101c2-14 3-26 5-41-2 0-5-1-7-1-98-36-196-72-294-108-6-2-10-1-14 5 103 48 206 96 310 145z m-26 45c4-13 7-25 11-37-19-10-38-19-57-28-79-39-158-78-236-117-6-3-9-3-12 4 97 59 195 118 294 178z m-420-146c14 13 27 25 41 38 31-34 63-67 95-101-13-12-26-25-40-38-32 34-64 67-96 101z m90-108c-20-17-42-23-67-16-27 7-44 26-50 54-5 24 4 51 21 63 32-33 64-67 96-101z"/>
<glyph unicode="&#102;" d="M307 454c33-33 50-74 52-124l0-147 132-132c4-4 8-8 10-12 3-4 5-9 5-15 0-2-1-4-1-6 0-2-2-4-4-7-3-2-5-4-7-4-2 0-4-1-6-1-6 0-10 2-14 4-4 3-8 6-12 11l-133 132-146 0c-51 1-92 19-125 52-33 33-50 74-52 124 2 51 19 92 52 125 33 33 74 50 124 52 51-2 92-19 125-52z m-225-314c8-8 12-18 12-31 0-12-4-23-12-31-9-8-19-12-32-12-12 0-22 4-31 12-8 8-12 19-12 31 0 13 4 23 12 31 8 9 19 13 31 13 13 0 23-4 32-13z m159 43l88 0 0 88z"/>
<glyph unicode="&#103;" d="M94 411c2 1 5 3 7 4 6 3 11 3 14-2 3-4 2-10-4-14-4-2-8-5-13-8 6-6 11-11 17-16 1-1 3-1 5 0 6 2 11 5 18 7 5 2 10 0 12-4 2-6 0-10-6-12-5-2-10-4-15-7 5-6 9-12 14-18 1-1 3-2 5-2 6 1 11 3 17 4 7 1 11-1 13-7 1-5-2-10-8-11-5-1-10-2-15-3 3-8 6-15 10-22 0-1 3-2 4-2 7 0 14 1 20 1 5 0 9-4 10-8 0-5-3-9-8-10-2-1-5-1-7-1-4 0-7 0-11 0 2-8 4-15 6-22 1-1 3-3 4-3 6-1 12-2 18-3 6-1 10-5 9-10 0-6-5-9-11-8-5 1-10 1-15 2 1-8 1-16 2-23 0-1 2-3 3-4 5-1 11-3 15-4 9-3 12-7 11-13-2-6-8-7-16-5-4 1-8 2-12 4 0-8-1-15-1-22-1-3 0-5 3-6 5-3 11-5 16-8 5-3 8-9 5-13-3-5-8-7-13-3-7 1-11 3-16 5-2-7-4-15-6-23 0-1 1-3 2-4 5-4 10-7 15-11 5-4 6-9 2-13-3-5-8-6-14-1-4 3-8 6-12 9-1-2-2-5-3-7-2-6-7-11-6-16 1-5 7-9 11-13 4-4 7-9 5-14 83-34 181-8 235 49 0 0-1 0-1 0-7-1-10 0-12 5-2 5 0 9 5 12 3 3 7 5 11 8-5 5-11 10-16 15-1 1-4 1-5 1-6-2-11-4-15-7-7-2-12-1-14 5-3 5 0 10 7 13 4 1 8 3 12 5-4 6-9 11-12 17-2 3-4 3-7 3-6-1-11-3-16-4-7-1-11 2-12 7-1 6 1 10 8 11 5 1 9 2 14 3-3 8-7 15-10 21-1 1-3 2-5 2-5 0-10-1-17-1-6 0-11 3-11 9 0 6 4 9 10 10 4 0 9 0 14 0-2 9-4 16-7 23 0 1-2 2-4 2-5 1-12 2-17 3-6 1-10 5-9 10 1 5 5 8 11 8 5-1 10-1 14-2 0 8-1 15-2 22 0 2-2 4-4 5-5 2-11 3-16 5-6 2-9 7-8 12 2 5 7 7 13 5 4-1 9-2 13-4 1 8 1 16 2 23 0 1-2 3-3 4-5 3-10 5-15 8-6 4-8 9-6 13 3 6 8 7 14 3 4-2 8-4 12-6 2 8 4 15 6 22 0 2 0 3-2 4-4 4-9 7-13 11-6 4-7 9-3 13 3 5 9 5 14 1 4-3 7-6 11-9 4 8 8 16 11 23-4 5-8 9-12 13-5 4-8 10-3 17-85 36-185 11-241-53z m45-100c-4-4-7-8-10-11-5-5-11-6-14-2-4 4-4 9 0 14 3 5 8 9 11 13 1 1 2 3 1 4-3 6-8 11-12 17-2-5-5-9-7-12-4-6-9-8-14-5-5 3-6 8-2 14 3 6 6 12 10 18-5 5-10 10-17 15-1-3-2-5-3-7-1-3-1-5-2-7-2-6-8-8-12-6-5 2-7 7-5 12 0 2 1 4 2 7-1 0-1-1-2-1-55-92-37-212 44-283 2-2 4-4 7-2 2 2 5 1 8 1 7-1 13-2 20-4 3 7 6 14 8 20 0 1 0 1-1 1-4 0-9 0-13 0-6 0-10 4-10 9 0 6 4 10 10 10 6 0 11 0 18 0 1 0 3 1 4 2 2 6 3 12 5 20-6-1-11-2-16-3-6-1-10 2-10 8-1 5 2 9 8 10 5 1 12 1 17 3 1 0 3 1 4 2 1 7 1 14 2 21-6-2-10-4-14-5-7-2-12 0-14 6-1 5 1 10 7 12 6 2 11 3 17 5 1 1 3 2 3 3 0 7-1 13-2 21-5-3-9-6-12-8-6-3-11-1-14 4-2 4-1 9 5 12 5 3 10 6 15 9 1 1 2 3 2 3-1 7-3 13-5 20-1 0-1 0-1-1-3-2-7-5-10-7-5-4-11-4-15 0-3 4-2 10 3 14 5 4 9 7 13 11 1 1 2 4 2 5-3 5-6 11-9 18z m203-6c1-8 2-15 3-23 5 3 10 6 14 8 6 3 10 2 13-2 3-5 1-11-4-14-5-3-10-6-16-9-1-1-3-2-2-3 1-7 3-14 5-21 5 4 9 7 13 10 5 4 11 4 14 0 3-4 3-10-2-14-5-4-10-8-14-12-1-1-2-4-2-5 3-5 6-11 9-18 4 5 7 9 11 13 4 4 9 5 13 1 4-3 5-9 1-14-4-4-9-10-13-14 0-1-1-3-1-4 4-6 8-11 12-17 3 5 6 9 8 13 4 6 9 8 14 5 5-3 6-9 2-14-3-6-6-11-9-16-1-1-1-3 0-5 4-4 9-9 15-13 2 6 3 11 6 16 2 2 6 4 9 5 3 1 7-1 8-5 1-1 1-2 2-3 53 95 26 213-51 276-4-5-8-5-14-3-6 1-12 2-19 3-3-7-6-13-10-21 7 0 11 0 16 0 7 0 11-3 10-9 0-6-4-9-11-9-7 0-14 0-21 0-2-7-3-15-6-22 7 1 12 2 17 3 5 0 9-2 11-6 1-6-2-11-8-12-8-2-15-3-23-5 0-6 0-13-1-21 3 1 6 1 8 2 3 1 5 2 8 3 6 2 11 0 13-5 1-6-1-10-7-12-7-3-13-5-21-7z m143-45c0-127-103-231-230-232-126 0-231 103-231 230-1 126 102 230 229 231 127 0 231-103 232-229z m-451-2c1-122 99-220 221-220 122 1 220 100 219 221 0 122-100 220-221 220-121-1-219-100-219-221z"/>
<glyph unicode="&#104;" d="M236 264l0 243c-60-4-114-30-155-69 42-46 69-107 71-174z m-111 0c-2 59-25 113-63 154-35-42-57-96-59-154z m139 0l94 0c2 67 29 128 72 174-43 42-102 68-166 70z m243 0c-1 58-23 112-58 154-38-41-62-95-63-154z m-148-28l-95 0 0-232c64 2 123 28 166 70-40 43-67 100-71 162z m27 0c5-54 28-104 63-142 32 40 54 88 58 142z m-382 0c4-54 25-102 58-142 35 38 58 88 62 142z m232 0l-84 0c-5-62-31-119-71-162 41-39 95-65 155-69z"/>
<glyph unicode="&#105;" d="M52 143c12 12 24 25 37 37 36 34 74 63 115 88 23 14 48 24 74 31 5-12 6-25 5-38-1-28-10-54-23-78-26-53-63-97-107-137-1-1-3-2-4-1-42 22-75 54-97 96 0 0 0 1 0 2z m130-107c10 11 22 21 32 33 31 33 56 70 75 110 10 24 19 49 21 75 2 15 1 31-4 46 0 2 0 3-1 4 18 5 36 7 55 8 3-13 6-25 8-37 5-35 4-70-1-104-5-35-16-68-33-99-9-14-19-28-29-42-1-2-3-3-5-3-39-8-78-5-116 9-1-1-1 0-2 0z m-139 133c-7 19-13 39-15 61-4 31-1 62 8 93 1 2 3 4 4 4 32 16 65 28 100 33 25 5 51 6 76 0 21-5 39-15 53-33 0-1 1-2 1-3-1 0-1-1-2-1-38-12-73-31-105-55-36-26-71-52-102-84-6-5-12-10-18-15z m304 173c-7 0-13-1-20-2-12-1-22-3-33-5-3-1-4 0-5 2-17 25-42 38-71 45-37 7-74 2-110-8-17-5-34-12-51-18-2 0-4-1-6-2 1 1 1 2 1 3 28 59 71 100 132 122 1 0 3 1 5 0 45-8 85-29 117-65 18-20 31-44 41-70 0 0 0-1 0-2z m-9-307c56 85 63 178 45 276 10-1 20-2 30-2 5 0 7-3 8-8 8-42 24-81 43-119 6-11 6-11 1-22-24-59-66-101-125-124-1-1-1-1-2-1z m-103 453c10 1 20 1 30 1 54-1 101-21 141-58 2-1 3-4 3-5-2-27 0-53 3-79 0-2 1-3 1-5 0 0 0-1-1-1-12 1-25 2-37 3-1 0-2 2-3 3-6 18-14 35-24 51-18 27-41 49-68 65-13 8-27 14-40 21-2 1-3 2-4 2-1 1-1 2-1 2z m243-290c-20 34-32 72-40 112 15-3 29-8 42-15 1-1 2-2 3-3 5-31 4-62-4-93 0-1 0-1-1-1z m-2 123c-11 4-20 7-30 10-4 2-10 2-12 4-3 3-2 8-3 13-2 20-3 40-2 61 22-26 37-55 47-88z"/>
<glyph unicode="&#106;" d="M503 349c-4 77-70 137-148 134-61-3-111-43-129-97 5-1 9-2 14-3-1 7 0 15 3 24 15 39 69 72 108 66 28-4 40-24 32-51-9-30-44-60-78-70 36-29 60-74 60-125 0-9-1-17-2-25 2 0 3 0 5 0 78 3 138 69 135 147z m-164 76c4 17-2 28-17 31-22 4-51-16-59-39-7-20 3-35 23-35 21 1 47 22 53 43z m-163-53c-93 0-168-76-168-170 0-94 75-170 168-170 94 0 169 76 169 170 0 94-75 170-169 170z m-75-304c-48 20-87 88-77 136 7 34 33 48 66 37 45-16 86-76 86-124-1-44-34-66-75-49z m26 52c4-26-12-41-35-34-28 8-54 44-53 73 1 20 13 30 32 26 25-6 52-37 56-65z"/>
<glyph unicode="&#107;" d="M111 230c8-13 17-25 25-38-1 0-1-1-2-2-10 12-19 24-29 36 2 1 4 3 6 4z m305-177c-3-3-7-7-11-8-20-6-37-6-58-10-5-1-17 5-23 6-19-19-57-24-76-1 8 2 13 4 18 5 32 5 65 8 96 15 20 4 21 8 16 27-5 19-9 37-14 55-1 5-3 9-5 15 1 1 2 2 5 5 2-3 3-6 4-8 8-32 16-65 24-97 2-10 8-12 15-5 2 2 2 6 1 9 4 4 9 7 11 9-7 38-9 76-12 114-3 0-8-1-14-2 0 1 0 2 0 2 12 6 19 13 22 23 0 7 1 13 1 20 0 1 0 1 0 2 0 2 0 5 1 8 1 14 3 29 4 43 0 3 0 5 0 7 0 6 0 12 0 18 1 11-3 17-15 14-2 0-5 1-8 4 4 1 7 2 11 3 4 3 10 6 11 9 0 6-2 14-5 18-5 6-14 8-23 13 8-1 13-3 18-2 3 0 8 5 8 7-4 33-8 66-27 96-7 11-17 20-31 21-26 1-51 1-77 0-11 0-23-4-35-6-3 0-6 0-10 0 0 1 0 3 0 4 13 3 25 6 37 7 26 2 52 3 78 3 21-1 37-12 46-31 1-2 2-4 3-5-1 1-1 3-2 5-5 19-22 30-43 33-58 8-114-2-167-24-33-13-59-33-55-74-30-4-44-25-45-51 0-25 2-51 10-74 14-44 51-71 84-100 11-10 19-26 24-41 10-28 15-58 25-86 10-27 31-38 60-33 10 2 20 9 30 8 30-3 58 3 82 19 4 3 8 7 11 12 0-1 0-1 0-1z m-140 77c0 1 0 1 0 2 22 6 45 13 68 20 0-2 0-3 1-5-23-5-46-11-69-17z m117 188c-20-9-36-20-39-42-8 18 17 44 39 42z m-23 114c0-1 7-5 9-4 2-4 5-8 7-11-1-9-15-43-31-54 6 25 11 48 15 69z m-123-387c-2 2-3 5-4 7-12 27-21 54-26 84-1 14-8 29-21 40-22 17-43 35-61 55-30 32-44 72-38 117 3 23 13 41 39 47 2 0 5 5 5 8-2 26 11 45 32 57 16 8 33 14 49 22 3 1 5 0 8 1 0-2 0-3 1-4-5-2-9-3-13-5-21-7-41-15-57-32-12-13-15-28-9-46 21-56 57-78 132-65 22 4 43 12 59 27 2 2 5 2 8 3 0-1 1-2 2-3-3-3-5-7-8-9-44-32-92-36-143-23-5 2-10 4-14 5 7-21 17-42 22-64 5-22 5-45 6-68-7 34-6 70-23 105-5-13-9-23-14-35 2 18 3 33 5 48-2 0-3 0-4 1-4-3-8-5-14-10 8 20 5 36-2 52-2 4-5 8-7 11-15 21-36 19-47-4-11-21-9-44-5-66 7-40 31-68 60-94 9-7 17-15 26-21 14-9 23-20 27-36 3-10 14-13 23-7 2 1 3 6 3 9-1 6-3 12-4 18 0 1 0 2 1 5 3-8 5-15 8-21 3-8 9-11 17-9 1 0 2 1 3 1 24 5 23 5 18 29-3 15-6 31-8 47-1 9-2 23 12 25 13 2 14-11 16-20 3-18 5-36 8-53 1-13 3-15 15-11 33 12 28 9 25 38-1 12-2 23-3 35 2 0 3 0 5 0 0-3 1-5 1-8 2-16 4-32 6-48 1-8-1-13-10-15-39-13-79-27-121-31-2 0-4-1-5-3 11 0 22 0 33 0 0 0 0-1 0-2-8-1-16-2-24-2-10 0-14-4-11-14 7-19 13-38 19-56 1-4 3-7 2-12z m-15 249c39 17 76 28 116 25-37-8-75-16-116-25z m95-121c-2 21-3 41-5 62 9-20 8-41 5-62z m-52 14c0-4 1-8 0-12-6 24-10 48-4 73 3 10 11 17 22 17 9 0 17-3 22-14-24 17-40 11-42-15-2-16 1-32 2-49z"/>
<glyph unicode="&#108;" d="M257 106c-6 0-13 0-19 1-32 5-61 22-81 33-4 2-12 6-20 12-2-39-7-94-7-94 0 0 28-42 94-49 82-7 106 31 106 31 0 0 15 59 19 82 0 1 1 3 1 4-23-7-61-20-93-20z m100 385c-30 7-61 11-93 14-40 4-77-2-99-40-31-97 10-158 11-158l-13-4c-1 3-28 39-25 89 1 19 7 55 9 71-27 5-43-6-54-37-1-2-1-3-2-5-27-77-8-152 38-219 0-9 6-16 8-24 0 3-1 5-2 6 5-6 59-42 108-49 41-5 99 14 118 21 4 9 9 17 14 25 34 51 57 106 69 166 16 78-10 123-87 144z"/>
<glyph unicode="&#109;" d="M258 351c-33-5-61-20-88-39-2-1-5-2-7-2-48 1-94-5-137-25-8-4-12-8-13-18-2-12-5-24-1-36 1-1-3-3-4-5 0 42 0 83 0 125 83 0 167 0 250 0z m143-167c-22 0-40 20-40 41 1 22 19 40 41 40 22 0 40-19 40-40 0-22-18-41-41-41z m-348 41c0 19 16 35 35 35 19 0 36-16 36-35 0-19-16-36-35-36-19 0-36 16-36 36z m449 55c-2 10-3 21-5 32-14 0-29 1-45 2-2 0-5 0-8 1-33 12-66 24-99 35-29 0-58 0-87 0-33-3-61-19-88-38-2-2-5-2-7-2-48 1-94-5-137-26-8-3-12-7-13-17-2-12-5-24-1-36 0-1-3-3-5-5 0-2 0-5 0-8 13-4 26-8 41-13-6 25-2 44 17 56 16 10 33 9 48-1 18-14 22-32 16-54 75 0 150 0 226 0-4 22-1 39 14 53 10 10 22 14 35 13 30-1 48-25 45-64 14 7 29 12 40 20 17 14 17 33 13 52z m-165 27l-138 1c0 0 0 0 0 0 5 4 35 24 55 30 22 8 83 3 83 3l0-34z"/>
<glyph unicode="&#110;" d="M507 399c-2-9-8-15-14-21-83-83-166-165-249-248-1-2-2-3-4-4-7-7-16-7-23 0-30 30-59 59-89 89-7 7-7 16 0 23 1 2 2 3 4 4 82 83 165 166 248 249 6 6 12 13 21 14 4 0 8 0 12 0 9-3 18-6 26-10 32-21 58-46 68-84 0-4 0-7 0-12z m-500-371c6-9 14-17 24-23 4 0 8 0 12 0 2 2 4 3 6 5 32 31 65 62 97 93 9 9 19 13 31 13 3 0 5 0 8 0 0 0-1 0-1 0-22 21-43 43-65 64 0 0 0-1 0-1 2-17-5-29-17-41-28-27-56-56-84-84-4-4-8-8-11-12 0-5 0-10 0-14z m405 131c-2 0-4-1-6-1-17-3-21-8-21-26-1-24 10-42 27-58 13-13 28-23 48-23 16 0 17 1 23 17 0 0 0 1 1 1 9 28 2 57-21 75-10 9-21 12-33 16-6-1-12-1-18-1z m27-117c-16 3-28 13-40 25-15 15-27 33-25 56 0 8 2 16 3 23-27-19-33-67-11-95 24-32 67-36 97-10-8 1-16 0-24 1z"/>
<glyph unicode="&#111;" d="M497 31l-478 0 0 454 38 0 0-197c33-3 101-17 151-73 51-57 64-117 68-146l221 0z m-440 38l181 0c-5 25-17 74-59 121-40 44-94 57-122 60z"/>
<glyph unicode="&#112;" d="M384 464c4-2 8-4 10-7 4-6 2-12-2-18-11-13-24-20-40-24-7-2-13-3-21-4 3-10 5-19 7-28 14-49 30-97 53-141 7-13 15-26 22-38 5-9 2-19-7-22-7-3-14 0-19 7-7 14-16 27-23 41-10 22-19 44-28 66-1 1-1 2-2 4-1-2-2-3-4-5-24-36-49-71-73-107-4-5-8-7-14-7-44 0-88 0-133 0-14-1-21 11-15 24 24 48 46 95 70 143 1 4 2 6 0 10-2 5-4 10-6 14-8-3-15-6-23-8-10-3-16 0-17 11-1 6-1 11-1 17 1 5 3 8 8 9 2 0 5 0 6 0 22 0 44 0 66 0 3 0 6 0 9 0 2-1 5-3 5-5 1-2-1-6-3-7-4-3-10-4-15-6-2-1-4-2-7-2 2-4 3-8 5-12 1-1 3-1 5-2 24 0 47 0 70 0 13 0 26 0 39 0 2 0 4 0 6 0-3 11-5 20-8 30-1 8-3 16-5 24-3 12 4 20 16 20 10 1 20 1 30 3 9 2 17 7 24 14 2 3 6 5 10 7 2-1 4-1 5-1z m-137-238c1 1 2 1 2 2 24 34 48 69 71 104 1 1 1 3 2 5-40 0-78 0-118 0 15-37 29-74 43-111z m-24-17c-14 36-27 70-41 106-18-36-35-70-52-106 31 0 61 0 93 0z m104 58c5-11 9-22 14-33 1-2 0-4-1-6-16-29-10-64 15-86 22-19 54-23 80-8 26 14 40 43 35 73-5 28-28 52-57 57 0 0-1 0-2 0-9-1-13 4-15 12-3 7-6 14-9 21 30 7 85-8 109-59 22-48 3-107-44-134-46-26-107-12-137 32-31 45-19 101 12 131z m-123-106c-12-41-60-80-119-68-56 12-92 68-80 124 13 59 70 88 114 80-3-8-8-15-11-24-3-6-6-9-13-10-34-5-59-36-58-70 1-34 27-64 61-68 29-3 51 8 67 32 2 3 4 4 8 4 10 0 21 0 31 0z"/>
<glyph unicode="&#113;" d="M423 506c4-17 9-33 14-49 10 9 20 19 30 28 1-1 1-1 2-1-3-16-15-26-25-38 18-6 35-12 52-18 0-2-1-5-2-7-17-26-43-41-71-51-14-4-29-7-43-10-2-1-4-2-6-4-34-34-68-68-102-102-2-2-5-4-8-3-4 1-7-1-10-4-15-13-29-25-44-38-2-1-4-3-5-5-1 1-1 1-2 2 1 1 5 6 6 7 15 15 25 26 40 40 4 3 6 6 5 11-1 3 1 6 3 8 33 33 65 66 98 99 3 3 5 7 6 12 5 19 9 39 15 59 8 24 22 44 42 61 2 1 3 2 5 3z m-62-181c26-34 41-76 40-118-8 0-15 0-23 0-1 0-2 3-2 5-1 18-4 36-11 54-7 15-14 28-23 40-5-5-11-10-16-16 11-15 19-33 24-54 2-9 2-19 3-29-10 0-20 0-29 0-1 23-8 44-20 62-5-6-11-12-17-18 7-12 12-27 12-44-9 0-18 0-27 0-1 12-5 23-9 31-1 0-1 0-1 0l0 0c-9-8-18-16-27-24-5-4-7-7-12-11-1-1-25-10-25-10l-3 2c0 1 0 1-1 2l-3 3 5 13c2 3 3 7 4 8 5 6 10 10 15 15 8 8 15 16 25 25-10 6-21 9-34 11 0 9 0 17 0 27 16 1 32-4 47-13 6 6 12 12 17 18-18 12-40 18-64 19 0 10 0 19 0 27 0 4 3 3 5 3 16-1 31-4 46-9 13-6 24-12 35-19 1 2 3 4 5 5 3 4 7 8 11 12-23 17-51 28-84 33-5 0-9 1-14 1-3 0-4 0-4 4 0 7 0 14 0 21 46 1 87-15 120-41 1 1 1 1 2 2-34 27-77 43-123 43-111 0-200-89-200-198-1-112 92-202 202-201 108 1 197 90 197 199 0 46-16 88-41 122-1-1-2-1-2-2z m-158-187c0-9 0-18 0-27-45-1-92 40-92 92 9 0 18 0 27 0 5-38 26-60 65-65z m0-52c0-9 0-19 0-28-73-2-146 62-145 145 9 0 19 0 28 0 2-31 13-59 35-81 22-23 50-34 82-36z m0 188c0-1-2-3-4-3-16-2-30-9-42-20-11-11-16-25-18-40 0-1-1-2-1-4-9 0-18 0-26 0-8 42 48 98 91 92 0-9 0-17 0-25z m0 53c1-3-1-4-4-4-21-1-40-7-58-19-23-15-39-35-47-60-4-12-6-24-9-37-8 0-18 0-28 0 1 11 2 22 4 33 15 60 64 104 126 112 4 1 8 1 13 1 2 0 3-1 3-4 0-7 0-15 0-22z m-139 15c38 39 84 58 139 60 0-9 0-16 0-24 0-1-3-2-5-2-28-1-54-9-78-23-48-29-77-71-84-127-1-6-2-12-3-19-8 0-16 0-25 0 2 53 20 98 56 135z m139-333c-47 1-89 16-124 46-46 39-69 88-71 148 9 0 17 0 25 0 1-9 2-17 3-26 11-71 70-130 141-141 7-1 14-1 21-2 4 0 5-1 5-5 0-6 0-13 0-20z m4 129c37 3 63 30 65 66 8 0 16 0 24 0 1 0 2-1 3-1 1-48-44-93-92-92 0 9 0 18 0 27z m0-52c31 2 59 13 82 35 22 23 33 50 35 82 9 0 18 0 28 0 3-70-60-146-145-145 0 9 0 19 0 28z m-1-77c0 7 0 14 0 21 0 1 1 2 1 4 46 1 86 17 119 50 33 33 49 73 50 120 2 0 4 0 6 0 6 0 12 0 19 0 3-98-82-196-195-195z m214 494c5-17 9-33 14-49 10 9 20 18 30 28 1-1 1-1 2-2-3-15-15-25-25-37 18-6 35-12 53-18-1-3-2-5-3-7-17-26-43-41-71-51-14-5-28-7-42-11-3 0-5-2-7-3-34-34-68-68-102-102-2-3-5-4-8-3-4 0-7-1-10-4-15-13-29-26-44-39-1-1-3-2-5-4-1 0-1 1-2 1 1 1 1 3 2 3 15 15 30 30 45 45 3 3 5 6 4 10-1 4 1 6 3 9 33 33 65 66 98 99 3 3 5 7 6 11 5 20 9 40 15 59 8 24 22 45 43 61 1 1 2 2 4 4z"/>
<glyph unicode="&#114;" d="M478 434c-4-11-12-18-18-25 0 0-15-21-18-23-2-3-52-15-67-18-5-3-7-4-12-12-25-37-64-91-89-128-3-4-3-8 0-13 24-33 47-65 70-98 6-9 9-20 14-30 2-4 3-8 6-11 14-24 29-48 44-72-1 0-2-1-2-1-6 7-13 15-18 23-9 11-17 23-25 34-6 10-12 18-23 24-6 4-11 12-15 19-22 32-43 64-65 95 0 1-1 2-3 4-4-6-8-12-12-18-19-28-38-57-58-85-5-8-13-13-20-19-2-3-5-5-8-8-13-19-27-39-41-58-2-3-4-6-8-7 1 2 3 5 4 8 13 20 25 41 38 62 1 3 4 5 4 8 1 15 9 24 17 35 23 32 45 64 68 95 3 5 3 8 0 12-30 45-60 89-90 134-2 3-7 5-11 7-17 4-36 8-53 14-5 1-11 5-14 9-11 11-20 24-30 36-9 10-7 21-3 32 5 14 12 28 19 42 1 2 4 5 6 5 19 1 38 2 57 1 6 0 13-6 16-11 10-15 19-31 27-48 3-5 3-12 2-18-1-16-4-33-6-50 0-3 0-7 2-9 30-43 62-86 93-129 0 0 1-1 2-2 17 23 33 45 49 67 14 20 29 40 42 60 3 4 5 11 4 16-1 18-3 35-5 53 0 3 0 8 2 12 8 15 17 30 25 46 6 11 16 16 28 15 14 0 29-1 44-3 4 0 9-4 11-8 7-13 13-28 21-43 0 0 1-16-1-21z"/>
<glyph unicode="&#115;" d="M383 507c8-28 15-55 23-82 18 16 34 31 51 46 1 0 1-1 2-2-5-25-24-42-40-62 29-10 57-20 86-30-1-4-2-8-4-11-29-43-70-69-118-85-23-7-47-11-70-17-4-2-8-4-11-7-56-55-112-112-168-168-5-4-9-7-15-5-6 1-11-2-16-6-24-22-48-43-72-65-3-2-6-4-10-6-1 0-1 0-2 1 1 2 1 4 3 5 24 25 49 50 74 74 5 6 9 10 7 18-2 6 1 10 5 14 54 54 108 109 162 164 6 5 9 11 10 19 9 33 15 66 26 97 13 41 37 75 70 102 2 2 4 3 7 6z"/>
<glyph unicode="&#116;" d="M32 217l173-78 281 177 18-11-299-192-194 90z m-2-41l-20-13 194-89 301 189-19 11-280-176z m280 259l-300-190 197-90 298 192z m-52-184c-41 0-73 19-73 43 0 23 32 42 73 42 40 0 73-19 73-42 0-24-33-43-73-43z"/>
<glyph unicode="&#117;" d="M490 256c-1-66-24-121-68-164-44-44-98-67-164-68-66 1-121 24-165 68-44 43-67 98-68 164 1 66 24 120 68 164 44 44 99 67 165 69 65-2 120-25 164-69 44-44 67-98 68-164z m-35 0c-2 56-21 102-58 140-37 37-84 56-139 58-29 0-56-6-81-19l8-24-54-43-35 0c-11-15-19-33-26-52-6-19-9-39-9-61 1-33 8-64 24-93 15-28 36-51 62-69l31 30 74-19 9-46c55 3 101 23 137 59 36 38 55 84 57 139z m-254 54l26-76-64-47-61 43 21 80z m170 53l-50 53-72-18 4-58 84-25z m-26-89l-59-55 24-70 74 0 30 83z"/>
<glyph unicode="&#118;" d="M254 487c-127 0-230-103-230-230 0-127 103-230 230-230 127 0 230 103 230 230 0 127-103 230-230 230z m-13-165c-3 19-6 38-9 58 0 1 0 3-1 4-4 18 0 16 14 21 21 7 42 13 66 15 6 1 10-2 15-6 19-16 34-34 49-54 6-7 6-8 1-15-11-16-23-32-34-49-9-12-9-12-23-6-13 4-26 9-39 14-9 3-18 5-27 7-7 0-11 4-12 11z m46-173c20 20 41 39 61 58 4 4 7 5 12 3 17-8 35-16 52-23 4-2 6-5 5-10-6-20-12-41-21-60-3-6-8-11-14-16-2-1-4-3-7-4-21-11-43-14-68-18-1 1-3 3-5 5-2 1-2 3-2 4-5 17-9 34-15 50-2 5-2 8 2 11z m-93 109c6-26 11-53 18-79 1-6 0-9-6-11-22-10-46-21-68-31-5-3-9-2-12 3-16 21-33 43-49 64-4 4-4 8-2 12 10 21 19 43 28 65 2 3 4 8 8 6 2 0 4 0 5-1 23-6 45-12 67-18 6-1 9-4 11-10z m249-23c-4 3-5 7-5 12 1 25-4 50-14 73-3 7 11 14 16 20 1 2 3 5 5 8 1 0 1 1 2 1 13-28 21-59 21-92 0-13-1-25-3-37-3 7-16 11-22 15z m-260 223c0-1 0-4 0-7 1-8 1-17 2-25 0-5-1-8-5-11-21-19-41-37-62-57-5-4-10-5-16-5-11 0-22-1-33 0-2 0-4 0-6-1 25 49 68 88 120 106z"/>
<glyph unicode="&#119;" d="M269 186c-1-6-3-12-3-17-1-27 0-54 7-80 5-22 15-42 33-58 8-7 9-11 5-21-21 2-35 15-46 32-14 21-21 45-21 70 0 23 1 47 2 70 0 3 0 7 0 10-10 0-14-2-16-13-5-20-8-39-11-60-1-6-3-12-5-19-7-28-34-53-75-47-32 5-47 26-60 50-6 11-12 21-22 29-4 3-7 9-11 12-15 15-15 32-12 51 5 33 35 63 74 64 22 0 45 2 67 3 6 0 12 1 16 8-3 2-5 4-8 4-19 2-38 4-56 6-24 3-47 8-69 19-35 19-32 58-16 79 11 13 25 23 37 35 2 2 4 4 6 6 15 17 28 36 43 51 44 40 102 3 107-39 4-27 8-55 11-83 1-3 1-6 2-8 0-2 2-3 3-5 1 2 4 3 4 5 2 13 3 27 4 41 1 14 2 29 3 43 2 22 16 37 31 50 13 11 27 19 45 20 19 0 34-7 46-20 5-4 10-10 13-15 10-18 26-31 43-41 13-6 21-17 27-30 6-14 2-28-1-41-4-26-22-40-42-52-21-13-43-17-67-19-13-1-26-3-39-5-2-1-5-3-7-5 2-1 4-3 7-3 19 0 37 0 56 0 23 0 45 0 66-9 19-8 32-20 37-39 3-13 1-27-1-40-1-10-6-18-11-28 0-1-1-2-2-2-18-11-28-29-36-47-7-14-16-24-27-33-17-14-42-14-61-2-20 13-35 31-46 51-4 6-5 14-7 21-5 18-9 34-13 51-1 0-3 0-4 0z"/>
<glyph unicode="&#120;" d="M249 116c26 0 33 5 76 12 0-4 0-10 0-13-1-34-52-24-62-39 0-7-10-68-10-68l-9 0c0 0-10 62-10 67-10 15-63 9-64 42 0 4-1 7-1 11 43-8 55-12 80-12z m189 202c0-104-84-188-189-188-103 0-187 84-187 188 0 104 84 188 188 188 103 0 188-84 188-188z m-94 132c0-2 0-4 1-6 6-9 15-15 24-20 1 0 3 0 4-1 1 1 2 1 3 2 0 1 0 3-1 4-7 9-14 17-26 21-1 1-3 0-5 0z m-153-279c-6 4-12 9-19 13-2 1-6 2-9 2-1 1-2 0-3 0 0-1 0-3 1-4 7-8 17-13 28-16 1 0 3 0 4 1 0 1-1 3-2 4z m20 41c-8 7-16 12-26 14-3 0-7 0-11 0-7-1-11-7-9-14 1-5 4-9 8-12 6-4 13-7 21-7 5 1 9 1 14 3 7 3 9 10 3 16z m55-45c-5 1-9 2-15 3-5-2-12-3-18-6-4-1-4-5 0-6 12-5 23-3 33 2 4 2 4 5 0 7z m12 72c-14 10-39 5-47-10-3-5-4-11-1-17 3-5 9-6 14-6 13 1 25 5 34 14 6 6 6 14 0 19z m4 33c4 14 11 24 23 31 6 4 6 11 2 16-1 0-1 0-1 1-10 8-14 19-15 32 0 13 6 23 17 30 6 3 6 11 1 15-1 2-3 3-5 5-6 5-11 12-13 20-3 8-1 14 6 19 3 2 6 3 9 4 2 1 5 2 7 3 6 3 7 8 4 13-3 4-7 7-12 9-25 8-50 10-76 6-78-13-136-80-137-160 2-11 2-22 5-33 4-20 10-39 26-53 4-4 9-7 14-10 4-2 8 0 10 4 1 3 1 6 2 9 1 10 8 16 19 16 9 0 17-3 24-8 5-4 10-3 14 2 1 1 2 4 3 6 4 10 11 18 22 20 5 1 11 1 17 1 7-1 15-3 22-4 7-2 11 0 12 6z m50-61c-1 2-5 3-7 3-14-1-25-8-33-19-1-2-2-5-1-7 1-2 5-3 6-4 15 3 26 8 34 19 1 2 2 6 1 8z m1 76c-1 0-2 0-3 0-16-5-25-16-29-31-2-6-2-12 3-16 6-5 12-5 18-2 13 7 22 17 26 32 2 9-5 17-15 17z m23 49c0 7-2 15-8 23-6 8-16 10-24 2-2-2-5-5-6-8-5-12 0-30 9-38 6-5 11-6 17-3 9 5 12 12 12 24z m3 60c0 11-9 26-17 30-5 3-14 2-18-1-5-5-5-11-3-17 2-9 8-15 15-21 4-4 9-6 14-3 6 3 9 8 9 12z m28-152c-1 1-3 1-4 0-10-6-16-16-19-26 0-6 2-7 6-5 10 6 16 16 19 27 0 1-1 4-2 4z m7 73c-1 5-6 6-10 4-3-2-5-4-7-6-4-7-7-15-7-23 0-1 0-2 0-3 1-4 1-9 6-10 5-2 8 1 11 5 5 5 8 12 9 20 0 4-1 9-2 13z m4 38c5 8 2 26-5 33-3 3-6 2-8-2-1-3-2-7-3-11 1-8 2-15 7-21 3-4 7-3 9 1z"/>
<glyph unicode="&#121;" d="M473 400c7-1 14-1 19 1l4-2-2 3c0 1 2 3 4 6 2 1 4 2 6 3 1 2 1 3 0 5 0 1-2 2-6 2-4 0-6 0-8 0-1-3-1-5 2-7 2-2 3-3 4-3l-4-6c-3-1-8-1-15-1-8 0-15 2-21 6 4-3 9-6 17-7z m-29 42l1-2c0-1 1-1 3-1 1 0 2 0 3 1l1 2c0 0 2 0 5-2l-3 3c-2 2-4 2-6 2-2 0-5-2-8-4z m-34-6c1 1 0 2-1 3-2 0-5 0-8-2-3-2-5-4-6-5-2-3-3-6-3-10-1-4-1-6-1-7 0-1 1 0 2 2 2 1 3 3 3 4 2 3 3 5 5 6l4 1c0 1 1 2 0 2 0 1 0 2 1 3z m-27-365c-3 3-5 5-6 6-3 1-6 1-7 2-2 0-3 0-4 1-1 4-2 9-3 17 0 7 0 14 0 19 0 12 2 26 5 43 2 16 5 29 7 38l-5-80c0-5 1-12 2-19 2-8 3-12 4-13 1 0 3 0 5 0 3 1 5 1 8 0 3-1 7-3 10-6 3-3 4-5 4-6 1-1 0-1-2-2-3 0-4 0-6-1 0 0-1-1-1-2l-1-1-6 0z m-35 81c-1-11-3-21-5-32 5 12 7 22 7 32-1 10-1 15-2 16z m-10 159c5 9 8 14 8 14-1 0-4-4-11-12-7-9-11-20-13-36 5 13 10 24 16 34z m-13 6c7 11 10 16 11 16-1 0-5-4-13-14-7-10-14-26-18-48 6 20 13 35 20 46z m-17 2c7 11 11 17 12 17-1 0-5-4-13-14-8-10-14-26-19-49 7 19 13 34 20 46z m-12 5c7 12 11 17 11 17-1 0-6-5-14-16-9-12-15-29-19-52 8 23 15 40 22 51z m-12 5c7 10 10 15 10 15-1 0-5-4-13-13-8-9-13-25-17-47 7 20 13 35 20 45z m-14 4c7 9 10 14 11 14-1 0-6-4-13-13-8-9-13-22-15-40 4 17 10 30 17 39z m-12 4c5 8 8 12 8 12-1 0-5-4-11-12-7-7-11-19-12-35 4 16 9 28 15 35z m-13 4c4 7 6 10 6 10-1 1-3-2-8-8-5-7-9-17-10-32 4 13 8 22 12 30z m-126-171c-6-12-14-24-23-35 11 9 20 21 25 34 5 13 8 20 8 22 0-1-4-8-10-21z m-24 12c-6-10-14-19-24-28 12 7 20 16 26 27 5 10 8 16 8 18 0-1-4-6-10-17z m9 53c-1 10-1 15-2 16 3-8 6-14 10-21 4-6 5-13 5-19-1-10-3-20-6-29-3-9-6-16-9-21-2-3-4-7-7-10-3-4-5-7-7-11-3-5-4-13-4-24-1-11 0-20 0-28 1-2 2-3 4-4 2-1 4-2 7-3 1 0 2-2 2-4 0-2 1-4 3-5 1-2 2-4 1-5-1-1-2-2-4-2-1 0-5 1-11 1-6 1-10 2-12 4-3 6-4 16-4 31 0 14-3 31-8 49 1 2 6 8 15 18 10 10 18 23 25 39 3 9 3 18 2 28z m-95 33c4 5 10 8 17 8 9 0 17-3 24-7 6-4 8-6 5-6-7 2-16 4-25 5-10 1-15-4-16-14 1-9 6-15 15-18 9-3 18-2 27 3 12 11 19 24 19 39 1 14 5 27 14 40 6 7 14 13 25 21 10 7 21 13 32 18 10 4 20 8 32 11 12 4 26 6 43 6 10 0 22-1 37-2 14-2 28-3 42-4 10-1 22-2 35-2 13 0 26 5 37 14 4 3 9 9 14 18 5 9 9 15 12 20 0 1 0 2 2 3 1 1 2 2 4 3 1 1 4 2 8 2l6 1-6 0c-4 0-7-1-9-2-1 0-2-1-3-2l-3-5c-1-1-2-3-4-4-2-2-3-2-4-2-1 0-1 3 0 6l2 10c1 3 3 7 6 11 4 5 9 8 16 11 3 1 5 3 7 6 1 2 3 4 7 6 3 2 8 2 16 2 8 0 17-3 27-11 1-2 2-5 2-7 1-2 1-4 3-5 8-5 15-9 21-14 6-5 10-8 11-11 1-3 0-6-2-9-2-3-6-6-10-9-4-2-11-2-19-2-8 1-14 2-20 4-2 0-5 0-8-1-3-1-6-3-6-5 2 2 5 3 7 3 2 0 4 0 5 0 0-2-1-5-2-8 0-4-1-8-2-12-4-14-8-24-11-31-3-6-6-13-9-19l-7-22c-3-8-7-17-13-27l-14-19c-5-8-9-15-12-21-3-7-6-17-10-32-3-15-6-31-9-50-3-19-5-34-5-47 0-13 1-23 3-30 1-1 3-3 7-3 3 0 6-2 8-3 1-2 3-4 6-7 3-3 3-5 2-6-2-1-4-2-6-2-2 0-3 0-3-2l-10 0c-4 0-6 1-7 2 0 2-2 4-3 4-2 1-3 2-4 3-3 5-5 11-7 20-1 9-4 15-7 19-1 1-2 1-4 1-2 0-2 2-1 5 3 7 5 18 6 31 2 14 2 33 1 58 0 5-1 9-2 13-1 4-2 7-2 10 0 2 1 4 2 5 2 0 3 2 4 4 3 9 4 16 3 23-2 7-2 13-3 18 0 3 1 7 3 11l2 7c0-1-2-3-4-6-2-3-3-7-4-10 0-6 1-13 2-19 1-7 0-13-2-21-3-5-11-6-26-3-15 3-28 7-40 15-11 8-21 17-30 24-8 8-17 14-27 18-7 3-13 4-19 3-6 0-10-2-12-4-5-4-8-10-11-18-3-9-4-20-3-33 1-8 0-16-3-25-2-8-7-16-14-26-7-9-15-19-22-30-7-12-13-24-17-36-1-6-1-14 1-23 3-9 4-16 6-22 1-3 3-4 5-5 2-1 5-2 9-2 2 0 3-1 4-3 2-3 3-4 4-5 1-1 3-2 4-5 1-2 0-4-3-5-3-1-8-1-15-2-7 0-10 1-11 2-2 3-3 4-5 4l-4 1c-1 1-2 4-4 11-1 6-2 11-2 16-2 5-4 14-9 25-5 12-8 20-8 24 0 4 3 9 8 16 5 6 9 13 13 21 2 7 5 14 7 23 2 8 4 16 5 23 0 4-1 8-4 13l-9 16c-3 8-7 15-10 23-2 7-5 13-6 17-2 2-3 7-3 13 0 6 4 14 12 23-11-9-16-16-16-23 1-7 1-11 2-14 1-3 0-10-3-20-3-11-9-20-18-28-10-7-21-10-33-8-12 1-21 7-26 18-3 11-3 19 2 25z"/>
<glyph unicode="&#122;" d="M494 364c-8 5-13 17-26 14-8-1-13 2-17 9-8 16-21 26-38 29-13 2-25 5-37 8-14 4-28 7-42 11 0-1-1-1-1-2-3 0-5 0-8 0-14 1-15 2-13 16 2 11 3 22 4 33 1 14-7 25-19 27-14 2-25-5-29-20-2-6-4-14-5-21 0-5 2-11 4-17 1-4 5-7 6-11 5-16 1-30-5-43-2 0-3-1-4-2 0 0 0 0 0 0-8-4-15-10-22-16-4-2-8-3-11-6-4-4-7-4-12-2-17 4-31 12-46 20-6 3-10 6-13 13-1 3-2 7-4 10 0 1 0 2 0 3 0 19-14 33-33 33-18 0-32-14-32-33 0-18 14-33 32-33 3 0 5 1 7 1 1 0 2-1 3-1 10-3 20-2 28-10 17-16 35-30 58-35 4-1 8-1 12 0 5 1 11 3 16 4 3 1 6 2 9 3 0-26 0-51-18-73-2-2-2-6-4-9-1-2-2-6-5-7-5-4-10-8-9-17 0-2-2-4-4-6-7-9-15-17-22-25-9-11-21-14-33-17-9-2-18-6-26-11-5-2-9-7-13-10-26-20-52-42-83-55-21-8-27-29-16-47 3-3 7-6 10-6 3 0 7 4 9 7 4 4 7 9 11 13 8 7 17 14 26 20 7 6 15 11 23 16 3 2 7 4 12 5 32 12 61 32 94 42 5 2 9 2 15-1 7-3 16-3 24-4 2 0 5 1 8 1-1-3-1-6-2-8-2-4-4-8-7-11-6-6-5-10 0-15 5-4 11-8 10-17-1-11-2-22-3-33 0-2-2-3-3-5-1 2-4 3-4 6-1 5-2 10-3 16-1 8-4 12-13 12-8 0-13-5-15-12-1-5 0-10-1-15-1-6-1-13-4-18-8-10-10-22-9-34 0-5 3-13 5-13 5 0 12 2 16 5 4 4 6 11 10 16 2 4 5 5 8 1 2-4 5-8 7-12 4-6 8-13 12-18 8-7 18-6 22 3 9 19 17 39 25 58 4 12 5 26 11 37 9 16 10 33 14 51 4 15 10 30 15 46 0 1 2 2 2 2 10 3 10 12 11 19 1 8 0 15 1 22 3 25 7 50 11 75 2 12 4 24 7 35 1 7 5 12 13 11 10-1 15 2 15 12 1 8 6 10 12 7 10-6 21-12 23-27 1-2 1-6 3-7 7-6 25 0 28 9 1 2 2 4 3 5 1-1 3-2 5-3 1-2 2-5 3-5 3 0 7 1 10 2 1 0 1 4 1 5z"/>
<glyph unicode="&#66;" d="M477 208l-34 47-17 20c0 0-22 58-48 82-25 23-28 47-28 47 0 0 17 17 14 58 0 0-26-37-39-34 0 0-4 2 4 15 0 0 8 32 5 41 0 0-20 4-38-39 0 0 0-1 0-1 0 0 0 0 0-1 0 1 0 1 0 1 0 0-3 1-12 2-2 0-5 1-8 1-6 2-15 2-24-4-5-1-21 9-26 8 0 0-1 1-1 1-5 2-14 14-16 17 0 0 4-14 6-18 0-1 0-1 1-2 0 0-1 0-1 0 0 0 0 0 1 0 2-3 10-7 10-7l-19 8c0 0 0-7-6-5-29 8-37 11-35 10l36-30c0 0-21 8-26 10-9 4-28-2-41 6 0 0 42-28 45-40 0 0-1 6-7 3l-4 3-31 15 2-10c-7 1-13 3-22 11l-22 21c0 0 18-35 34-48l-3-2 15-16c0 0-21-2-35 7l-19 18-4 6-1-2c0 0 0-12 6-19 0 0 0 0 0 0 6-7-1-2-1-2l-22 8-1-6c0 0 16-7 15-32 0 0-9-1-7-3l-20 4 23-13c-16 0-20-1-27 1-8 1-16 13-21 23l-3-2c0 0-5-10-4-19 0 0 0 0 0 0l-4-1-4-3-1-5 0-9 1-14-1-14c0 0 8-23 14-19l3 0-21-10c0 0 4-12 17-22-5-1-10-3-14-4l-2-5 169-203c0 0 2 41 8 59 4 12 27 60 27 60l14 29c0 0 33 43 71 9l37-19c0 0 40-30 54-35 0 0 6-9 2-23 0 0 17-19 46-10 0 0 14 1 1 18 0 0-23 17 1 9l10-16c0 0 24-7 34 17 0 0 0 21 19 21 0 0 18 9-25 51z m-233 225l-1 0c0 0 0 0-1 0 1 0 1 0 2 0z"/>
<glyph unicode="&#67;" d="M505 309c0 0-8 16-12 18 0 0-2 8-11 15l-7 10-3 6-4 6c0 0 0 4-5 7l-5 5 1 9-2 3 0 4-2 0 1 6-1 0-10-8c0 0-1 11-1 11 0 0-4 15-4 15 0 0 0 1 0 1 0 0-1-1-1-1l-2-7-1 0-1-5-1-1-1-7c0 0-8 3-9 5 0 0-1 2-4 2 0 0 0 0-1 0-2 1-4-1-5-5 0 1 0 0-1 0 0 2-1 3-2 4l-3 5c-1 1-2 2-2 3 0 1 1 1 2 2-3-1-4-6-4-12 0-1-1-2-2-2 0 0-1 0-1 0l-3 0c-1 0-1-1-1-1l0-1c0 0 0 0 0 0l1 5c0 0 0-1-1-1 0 0-1 0-1-1-2-3-5-6-8-9l2 6c-1-1-2-1-2-2l0 3c1 1 1 2 1 2-1 0-2-1-2-3-1-1-2-2-3-3 0 0 0 0 0 0 0 0 0-1-1 0-1-1-2-2-3-4-1-1-2-3-2-4 0 1 0 2 0 3l-1-3c-1-2-1-3-2-3 0 0 0 0 0 1-1-2-2-4-3-6-2-1-4-2-6-3 0 1-1 1-2 1-2 0-4-1-7-2-3 1-6 1-8 0-2 3-2 6-1 8 0 2 1 3 2 4l2 3c2-1 3-1 5 0 1 1 3 3 5 6 2 0 4 1 4 1 1 1 2 2 2 3 4 2 6 4 6 6 1 2 1 4 0 6 0 0-1 1-1 2 0 0 1 1 4 0 2 0 3 0 5-1 2 1 2 2 1 3-1 1-2 2-5 3 1 11-1 18-5 23-3 4-9 7-16 7-6 0-10-2-14-5-3-4-5-8-7-13-3-1-4-2-4-3-10 2-20 2-28 1-9-1-18-3-26-6-8-1-14-3-18-6-5-3-9-7-12-12-1 3-3 1-3-4-10-5-14-12-15-19 0-7 1-14 4-22l-3-3c-6 2-13 3-19 1-7-1-15-1-23 1-12 4-24 3-36-1-12-4-25-11-38-21-1-1-2-2-4-2-1-1-2-2-4-4l-20-3c-7-1 6 1-1-1-2 0-3 0-3 1-1 1-2 1-3 0 0-2 0-3 2-4 2-1 3-2 4-3 0 0 0-1-1-2 0 0-1-1-1-2-14-3-24-6-31-10-8-3-13-7-16-11-14-13-19-20-38-29 9 1 7-4 13-7 8-4 20-2 26-7 24 5 31 9 48 18 5 1 6 5 9 6 3-17 8-33 16-50 1-5 1-9-1-13-2-5-6-9-9-12-3-4-7-8-10-12-4-3-6-7-6-11 1-3 2-7 5-10 7-11 12-22 17-34 5-12 9-24 14-36 4-4 4-10-2-17-4-2-5-6-5-9 0-4 1-7 4-12 3 0 7 2 13 6 2 2 5 5 6 9 1 5 1 10 1 15 2 10 1 17-3 20-8 14-14 28-19 41-2 8-3 14-1 19 1 4 3 8 7 11 6 3 11 8 16 14 4 4 7 7 9 9 2 3 5 6 7 9 1 2 2 4 4 7 1 2 2 4 4 5 5-1 7-5 6-11-2-8-7-18-16-33-4-4-6-8-5-12 0-4 2-7 8-11l20-16c7-6 13-12 18-19 2-3 5-6 6-8 0 0-1 0-1-1-3 1-5-1-7-3-2-3-3-6-5-10 3-3 10-4 19-5 0 0 0-1 0-2-1-2-1-5-1-8 1-3 2-7 6-12 4-5 7-6 9-4 2 3 4 8 5 13 1 3 1 6 1 9 5 0 10 0 16 1 6 2 13 4 21 4 8-1 16 3 23 12 5 17 11 35 19 51 2 8 7 14 15 19 5 3 11 6 16 9 2-4 4-9 7-14 3-3 6-7 10-10 5-4 11-8 19-11 4-4 7-8 7-12 1-5-1-9-6-15-5-8-13-15-22-22 0-1 0-2-1-3 0-1-2-2-5-3-5 1-9 1-15 1-2 1-4 0-6-4-2-3-5-8-7-14 6-3 12-3 17-2 5 2 9 4 14 7 3 0 5 0 8 1 2 1 5 3 7 8 13 12 24 24 31 38 2 3 2 6 2 9 1 6 0 11-4 13-9 13-17 28-20 46-2 7 0 13 5 18 4 2 6 6 8 12 1 5 2 12 2 20 0 8 2 14 6 20 5 8 10 17 15 26l-1 0c3 4 7 8 7 8l7 11c0 0 3 8 7 7 4 0 9-3 11-4 3-3 9-6 8-6 0 0 8-6 27-15 0 0 4-2 3-6 0 0 2-3 3-4 0 0 7-3 10-1 0 1 0 3 2 2 0 0 2-1 5 2 0 0 3 2 5 8l0 3 1 2 1 1c2 2 2 5 2 5z m-228-134c-3-16-7-32-9-49 0-4-1-8-2-10-2-2-4-3-6-3-13-3-22-4-27-2-3 1-5 2-9 2 0 0-1 0-2-1 0 1 0 2-1 2-4 8-8 14-14 20-6 6-12 11-19 17-11 9-11 21 2 38 5 3 10 8 15 14 4 6 9 13 13 21 9-5 21-10 34-15 3-5 7-8 12-8 1-1 4-3 8-4 3 3 5 2 5-4 0-5 0-11 0-18z"/>
<glyph unicode="&#68;" d="M476 486c2-6 2-10 0-14-6-19-36-91-90-215-53-124-96-199-129-226-15-5-36-10-62-13-26-3-57-5-93-4-17 0-29 1-38 3-8 1-14 4-18 9-4 4-6 9-6 14-1 6 0 11 1 18l0 5c1 14 4 28 10 42 6 14 19 21 40 23 20-1 43-1 70-1l76 0c24 12 59 66 105 163 46 96 75 162 87 197 3 7 7 11 12 13 5 3 12 3 18 0 10-4 15-9 17-14z m-224-244c-14-15-33-29-58-44-24-14-47-23-66-27-20-4-32-1-38 7l-23 39c-4 9 1 21 14 36 13 15 32 30 57 44 24 15 46 24 66 28 20 3 32 1 38-7l11-20c7-12 11-18 12-20 4-9 0-21-13-36z m-143-18c13 3 28 9 46 18-8-2-15-3-21-2-7 1-11 4-13 8-3 4-3 9 0 15 2 6 6 12 12 18-17-11-30-21-39-31-9-10-12-18-10-23 4-5 12-6 25-3z m14-127c-2 2-4 4-6 4-3 1-6 1-8-1-3-1-4-3-5-6l-11-43c0-3 0-5 1-7 2-3 4-4 7-5l2 0c5 0 8 3 10 7l11 43c0 3 0 6-1 8z m66 0c-2 2-3 4-6 4-3 1-6 1-8-1-2-1-3-3-4-6l-11-43c-1-3 0-5 1-7 1-3 3-4 6-5l2 0c5 0 8 3 10 7l11 43c0 3 0 6-1 8z"/>
<glyph unicode="&#69;" d="M12 164c0 3 0 6 0 8 5 14 9 28 16 40 7 14 17 25 33 28 25 4 50 7 76 11 0-13 9-24 3-38-3-7 1-14 9-17 7-2 13 0 17 6 4 6 5 14-1 18-13 9-10 23-14 35 7 3 14 6 20 8 3-4 6-8 8-12 4-7 10-13 8-24-2-7 5-13 12-14 7-1 13 2 16 9 3 7 2 15-5 17-15 7-17 21-26 32 7 5 13 9 18 14 8-7 15-13 22-18 5-4 7-7 8-13 0-8 6-13 14-13 8 0 13 5 15 13 1 8-2 15-10 16-18 3-26 18-39 25 10 18 10 18 28 12 0 0 0 0 0 0 10-4 21-5 27-16 4-6 12-5 18-1 7 5 8 12 5 19-3 7-10 9-17 7-3 0-6-3-8-2-12 4-24 8-37 12 4 11 8 20 11 30 1 6 4 7 10 7 22 0 45 0 67 0 11 0 21 0 32 0 0-6 0-10 1-15 15 0 30 0 44 0 0 26 0 51 0 76-15 0-30 0-45 0 0-6 0-10 0-15-31 0-62 0-92 0 5 31 10 61 16 91 13 0 25 0 38 0 18-9 21-27 24-45 50 5 101 10 150 15 0-33 1-65 0-98-1-28 0-55 11-81 3-5 4-11 4-17 1-30 1-61 2-92 0-1-1-1-2-2-39 0-80 0-120 0-8 0-17-1-25-3-32-10-64-13-97-13-82 1-164 0-245 0z m0-45c0 10 0 20 0 30 1 0 2 0 4 0 93 0 187 0 281 0 5 0 11 2 16 3 32 10 64 15 97 13 26-1 52 0 79 0 3 0 6 0 9 0 0-16 0-31 0-47-9 0-18 0-28 0 10-19 18-37 27-56 2-4 3-6 0-10-8-11-15-22-23-34-3-5-6-6-12-6-128 0-255 0-383 0-5 0-10 1-15 3-20 9-37 24-52 39 0 2 0 5 0 8 5 18 10 37 15 57-6 0-10 0-15 0z m351 15c-4-2-8-2-11-3-32-10-64-14-98-13-37 2-75 1-112 1-4 0-9-1-12-2-21-9-26-26-16-50 3-6 6-10 14-10 95 1 190 1 284 1 4 0 7 0 11 0-5 21-10 41-15 61-15 0-30 0-45 0 0 5 0 9 0 15z m15 229c-5 0-9 0-14 0 0 15 0 30 0 45 4 0 8 0 14 0 0-15 0-29 0-45z"/>
<glyph unicode="&#70;" d="M450 348l-167 0c0 2 1 4 1 6 0 16-13 29-29 29-15 0-28-13-28-29 0-2 1-4 1-6l-167 0c-12 0-21-10-21-21l0-272c0-11 9-20 21-20l389 0c12 0 21 9 21 20l0 272c0 11-9 21-21 21z m-16-240c0-14-11-26-26-26l-306 0c-14 0-25 12-25 26l0 174c0 14 11 26 25 26l306 0c15 0 26-12 26-26z m-177 253l-97 132m9 6l96-132-17-12-96 132z m88-138l95 132m-8 6l16-12-95-132-17 12z"/>
<glyph unicode="&#71;" d="M254 490c-128 0-233-105-233-233 0-129 105-234 233-234 129 0 234 105 234 234 0 128-105 233-234 233z m80-313c-90 1-164 96-145 183 14 60 71 97 131 86 81-14 139-97 124-176-10-55-56-94-110-93z m35 151c15 20 14 36-2 52-24 22-67 25-92 5-19-15-18-42 1-56 5-3 10-5 16-8-18-12-26-27-22-47 6-22 20-35 40-38 15-3 31-3 46-1 26 3 44 20 46 41 3 21-7 38-33 52z m-72 29c2 16 13 17 26 17 15 0 30-11 27-23-3-9-14-14-18-18-23 1-36 12-35 24z m43-98c-18 0-32 13-32 29 1 15 12 24 30 24 17 0 32-13 32-29-1-14-14-24-30-24z"/>
<glyph unicode="&#72;" d="M193 232l0 66-45-66z m136 93c-7 0-12-3-17-8-5-6-7-15-7-27 0-13 3-22 7-28 6-6 12-9 19-9 7 0 13 2 18 8 5 6 7 14 7 25 0 12-2 21-8 28-5 7-12 11-19 11z m-73 166c-130 0-235-105-235-235 0-130 105-235 235-235 130 0 235 105 235 235 0 130-105 235-235 235z m-3-292l-24 0 0-39-36 0 0 39-79 0 0 33 84 123 32 0 0-123 23 0z m126-19c-14-16-31-24-52-24-15 0-28 4-37 12-9 8-15 20-18 36l36 4c1-7 3-13 7-16 4-4 9-5 15-5 8 0 14 3 20 11 5 7 8 21 10 44-9-11-21-17-35-17-16 0-29 6-40 18-11 11-17 27-17 46 0 19 6 35 18 47 12 12 27 18 45 18 20 0 36-7 49-22 12-16 19-41 19-76-1-35-7-60-20-76z"/>
<glyph unicode="&#73;" d="M257 505c-135 0-245-110-245-245 0-136 110-246 246-246 135 0 245 110 245 246 0 135-110 245-246 245z m7-370c-5-5-16-5-20 0-2 3-2 5 0 6 3 2 6 3 8 4 5-1 9-2 12-5 1-2 1-3 0-5z m5 29c-3-4-8-5-14-6-6 1-11 2-15 7-3 3-2 5 0 8 9 7 22 6 29-2 3-3 3-4 0-7z m171 46c-4-11-8-23-13-33-6-12-12-22-20-32-8-11-18-21-29-30-10-8-21-15-32-21-10-5-20-9-30-13-4-1-8-2-12-2-4 0-7 1-10 3-4 2-7 6-9 11-1 3-1 6-2 8 0 3-1 6-2 9 0 2 0 3-1 5 0 2-1 3-2 5 0 1-1 2-1 3-1 1-1 1-2 2 0 1 0 1 0 2 1 21 3 43 5 64 1 14 11 25 24 29l-3 60c-1 0-1 1-2 1-1 1-3 2-4 4-21 24-58 25-80 2-2-3-5-6-7-7l-5-59c10-3 17-8 22-17 2-4 3-9 4-13 1-13 2-26 3-39 1-8 2-17 3-25 0-2-1-4-2-6-2-3-3-5-3-8-1-3-1-6-2-9-1-4-1-8-3-12-4-11-10-14-20-13-4 1-8 2-13 4-7 3-14 5-21 9-7 4-14 8-22 13-19 12-34 28-48 47-5 8-9 16-14 24-5 10-10 21-14 32-2 8-4 17-5 26-1 10 4 16 15 18 5 1 11 1 17 2 0 0 0-1 0-1 2 0 4 0 6 0 2 0 5 1 7 1 1 0 2 0 3 0 1 0 1 0 1 0 1 1 2 0 4 0 21-9 42-18 64-26 3-1 6-3 10-4l4 53c-2-1-5-1-7-1-3 1-7 2-10 3-19 4-37 9-55 13-1 0-1 1-2 1 0 1-1 2-2 2-9 7-19 10-28 14-4 1-8 2-11 5-4 5-5 10-3 15 4 14 11 26 19 37 7 10 15 20 24 28 14 12 28 23 44 32 10 5 21 9 32 12 14 4 28 7 42 8 3 0 22 1 30 1 9-1 19-3 27-5 18-4 35-11 51-19 36-22 64-50 81-89 2-4 3-7 4-11 1-5-1-13-7-16-2-2-5-3-9-4-6-3-12-5-19-7-1-1-1-1-2-2-1-1-2-2-4-2 0 0 0 0 0 0-1-1-1-1-2-1-2 0-2-1-3-2 0-1-1-2-2-2-22-5-44-9-66-13-4-1-8-1-12 0l3-53c14 4 27 10 41 14 13 5 26 10 39 14 1 1 2 1 3 0 2-1 4-1 6-1 5 0 11 0 16 0 3 0 8-1 11-1 10-1 16-11 16-17-1-7-3-13-4-20z m-302 68c1 1 2 1 3 0 4-2 6-5 6-9 0-3-1-6-3-8-2-1-3-1-5 0-5 3-6 13-1 17z m24-18c0 5 2 10 6 12 2 1 3 2 5 1 9-4 11-19 4-25-3-2-5-2-8 0-5 2-6 7-7 12z m213-2c-1-1-3-1-4 1-2 2-3 4-3 8 0 3 2 7 5 9 2 1 3 0 4-1 5-4 4-13-2-17z m-21-2c0-4-2-9-6-12-3-2-6-2-8 1-7 6-5 20 4 24 2 1 3 0 5-1 3-2 6-7 5-12z"/>
<glyph unicode="&#74;" d="M123 239c6 11 8 15 10 21 34-29 51-68 59-113 44 0 88 0 131 0 19 84 55 147 138 156-3 12-3 13-13 14-15 2-30 2-45 4-6 0-9-3-13-9-12-22-31-38-54-45-43-14-87 7-92 60-1 3-2 7-5 8-20 8-41 15-62-3-10-10-21-13-35-7 3 4 6 5 11 7 7 2 16 2 23 5 3 1 6 7 6 11 0 3-5 9-7 9-10-1-19-3-28-8-7-5-12-13-18-21-7 1-8 7-5 13 8 17 17 33 25 52 0 1-2 3-4 7-40-22-64-60-83-102 16-7 31-13 46-19-1-1-1-2-1-3-4 0-7 0-11 0-27-2-61-14-83-33-5-5-5-10-8-19z m238-67c-9 0-16-1-24-1-2 12 6 37 17 53 10-6 15 0 20 8 19 28 56 39 88 27 33-12 52-44 48-81-3-24-19-46-40-57-8-4-16-7-25-8-34-4-67 15-80 47-1 4-2 8-4 12z m40 39c11-4 21-9 33-5 5 2 14-3 16-7 3-6 2-15-1-20-3-4-12-5-18-4-11 0-22 2-34 3 4-19 21-31 39-31 21 1 38 16 41 36 3 19-8 38-26 46-19 6-39 0-50-18z m-133 77c40 10 67 37 111 40 42 9-22-56-50-60-24-3-51-2-61 20z m188-57l10-9-30-32-11 9z m-9-39l41-16-5-13-41 16z m-15-6l12-8-25-38-12 8z m-328 34c-7-9-15-17-16-29 0-5-7-13-12-14-5-1-12 3-15 8-2 4 1 13 3 19 4 10 9 19 15 30z m22 24c-11 0-39-2-57-4-16-1-37-4-52-6-10-13-16-29-16-46 0-42 33-75 75-75 41 0 74 33 74 75 1 21-10 42-24 56z m-50-98c-22 0-39 18-39 40 0 21 17 39 39 39 22 0 39-18 39-39 0-22-17-40-39-40z m5 53l43-10-3-14-43 10z m-10-61l-6 49 14 3 6-50z m-46 65l45-3-1-14-45 3z"/>
<glyph unicode="&#75;" d="M152 61c8-3 19-3 32-3 38 0 82 12 111 31 70 42 120 95 150 158 16 35 24 65 21 96-38-72-143-166-314-282z m273 408c-24 12-51 19-79 19-136 4-290-124-319-264-8-40-8-81 9-118 27-53 77-72 133-72 90-2 162 39 225 101 58 58 98 126 99 188-1 87-20 124-68 146z m-329-353c-28 0-33 22-35 41 0 7-1 12-1 15l0 4c0 155 114 290 263 305 35 4 75-3 104-22 18-12 27-29 24-51-7-60-43-104-70-133-72-79-163-130-267-156-6-1-12-3-18-3z m208-44c-33-21-80-33-120-33-17 0-41 4-53 16l-6 6 6 7c244 164 314 256 332 304l8 26 7-28c12-41 5-85-17-133-31-66-84-119-157-165z m129 338c2 17-3 27-17 35-22 14-49 21-76 21-5 0-12 0-17-2-139-13-246-140-246-287l0-1c0-4 0-10 2-16 1-23 8-25 18-25 4 0 9 0 16 2 102 23 187 75 257 150 40 42 58 80 63 123z"/>
<glyph unicode="&#76;" d="M255 131c-23-1-42-20-42-43 0-24 19-43 42-43 24-1 44 18 44 43 0 23-20 43-44 43z m-201-87c23 0 43 19 43 42 1 24-19 45-43 45-23 0-42-19-42-43-1-24 17-43 42-44z m10 130c0-23 21-43 43-42 23 0 43 20 43 42 0 24-19 44-43 43-25 0-44-19-43-43z m91 130c-23 0-43-19-43-42 0-25 18-44 43-44 23 0 43 19 43 43 0 23-20 43-43 43z m94-130c0 24-21 44-45 43-24 0-42-20-42-44 1-23 21-42 44-42 23 1 43 21 43 43z m-94-43c-23 0-42-20-42-43 0-24 18-43 42-44 23 0 43 19 43 43 0 24-19 44-43 44z m302 0c-23-1-42-20-42-43 0-24 18-43 42-43 24-1 44 18 44 43 0 23-20 43-44 43z m-100 0c-24 0-43-20-43-43 0-24 19-43 42-44 23 0 43 19 43 43 1 24-18 44-42 44z m-96 43c0-23 21-43 43-42 23 0 44 20 44 42 0 24-20 44-44 43-24 0-44-19-43-43z m185 0c0 24-21 44-45 43-23 0-42-20-42-44 1-23 21-42 44-42 23 1 43 21 43 43z m-191 130c-23 0-43-19-44-42 0-25 19-44 43-44 24 0 43 19 43 43 0 23-19 43-42 43z m99 0c-23 0-43-19-43-42 0-25 18-44 43-44 23 0 43 19 43 43 0 23-20 43-43 43z m-148 89c-23 0-43-19-43-42-1-25 18-44 43-44 23 0 43 20 43 43 0 23-20 43-43 43z m100 0c-24 0-43-19-44-42 0-25 19-44 44-44 23 0 43 20 43 43-1 23-20 43-43 43z m-50 86c-24 1-43-19-44-42 0-25 19-44 43-44 24 0 43 19 43 43 0 23-19 43-42 43z"/>
<glyph unicode="&#77;" d="M452 18c-23-15-48-15-73-10-36 8-69 26-101 45-73 45-139 100-203 158-3 3-5 6-8 9 14 14 42 14 82 2 5 11 10 23 15 35-6 6-13 12-18 19-11 15-11 28-1 42 9 11 19 20 29 29 9 7 18 13 29 22-38 16-79 6-116 26 9 5 15 7 19 9 48-6 94-11 143 4-7 19-12 37-20 53-5 8-15 14-23 20-9 6-14 13-12 24 7 0 14 1 22 1 13-14 27-30 40-45 4-5 10-10 11-16 5-18 18-27 30-35 11 7 19 16 30 19 10 2 22-2 32-2 3-8 5-13 7-18 7-17 2-30-15-37-10-4-21-9-32-11-6-1-13 1-18 2-9-11-17-25-29-35-12-11-28-17-45-27 17-14 31-28 47-38 28-18 35-31 30-64-3-21-6-42-9-64 52-36 104-73 157-109 0-3 0-5 0-8z m-190 200c-21 6-44 12-69 19-5-7-12-16-19-26 28-27 63-40 94-61-2 23-4 44-6 68z m0 0c2-24 4-45 6-68-31 21-66 34-94 61 7 10 14 19 19 26 25-7 48-13 69-19z"/>
<glyph unicode="&#78;" d="M229 107c-5 13-9 25-15 37-4 10-8 12-18 10-12-3-24-6-35-9-39-10-65 3-86 36-12 20-19 42-22 64-1 7 0 14 1 20 2 12 11 17 24 15 13-3 27-6 40-9 32-5 64-5 96-2 1 0 2 0 4 1-1 4-3 7-4 11-24 62-37 126-36 192 0 11 1 21 2 31 0 4 0 8 5 9 5 1 7-3 8-6 41-81 94-152 163-211 15-13 31-25 47-37 5-3 7-6 5-12-12-51-33-98-65-140-1-1-2-2-3-4-4-4-7-5-12 0-12 14-24 28-36 42-23 29-42 59-59 92-2 4-3 6-9 5-30-6-61-8-92-5-1 0-3 0-5 0 3-13 7-26 15-37 1-3 4-5 6-7 5-4 10-6 17-4 13 5 26 8 40 7 18-1 31-9 41-23 13-19 19-41 24-63 2-12 2-12 14-15 11-2 21-4 32-7-4-1-7-2-10-3-30-8-59-16-89-25-23-6-23-6-46 3-35 13-68 30-98 52-1 0-2 1-3 2-1 2-3 6-2 8 0 2 4 4 7 4 13-1 27-3 40-5 37-5 73-11 109-17 1 0 2 0 5 0z m-207-40c2-1 3-1 4-2 42-24 87-33 135-32 30 1 58 9 87 17 33 10 66 20 100 25 36 6 71 7 106-5 18-6 34-14 47-28 2-1 2-4 3-6-2 0-5 0-7 0-54 24-110 23-166 7-27-7-54-17-81-25-37-10-75-17-114-13-43 5-82 21-113 52-1 2-2 3-3 5-1 1-1 2-1 3 1 1 2 2 3 2z m52 286c17 0 31-14 31-32 0-17-14-32-31-32-18 1-33 15-33 32 0 18 15 32 33 32z"/>
<glyph unicode="&#79;" d="M504 306c0-33-9-65-24-94-17-31-38-58-65-79-23-19-49-31-77-37-2 0-4 1-6 2-8 9-17 17-26 26-64 65-129 129-194 194-3 3-4 6-3 10 11 44 35 80 70 109 23 18 48 33 76 43 69 23 131 11 185-37 28-25 48-55 58-92 4-14 6-29 6-45z m-399-27c62-62 124-124 187-187-11 1-21 1-30 3-12 2-23 6-34 9-17 4-34 6-51 1-4-2-9-5-12-8-19-22-37-45-56-67-4-5-9-11-14-16-10-12-21-15-36-9-20 9-35 24-42 45-5 12-2 23 8 32 19 15 38 30 56 46 10 8 20 17 29 25 6 6 9 13 9 21 2 16 1 31-4 47-7 18-10 38-10 58z m22 176c0-31-25-56-55-56-31 0-56 25-56 55 0 31 24 56 55 56 31 0 56-24 56-55z"/>
<glyph unicode="&#80;" d="M430 16c-18 0-34 7-46 19l-4 4 4 4c11 11 17 26 17 41 0 15-6 30-17 40l-4 4 4 4c12 12 29 19 46 19 18 0 36-8 48-22l4-3-4-4c-9-11-14-24-14-38 0-14 5-27 14-38l4-3-4-4c-12-15-30-23-48-23z m-34 24c9-8 21-12 34-12 13 0 27 5 37 14-9 12-14 27-14 42 0 15 5 29 14 41-10 9-24 15-37 15-13 0-24-5-34-12 10-13 16-28 16-44 0-17-6-32-16-44z m32-23c-37 0-67 31-67 68 0 37 30 67 67 67 37 0 68-30 68-67 0-37-31-68-68-68z m0 124c-31 0-56-25-56-56 0-31 25-57 56-57 31 0 56 26 56 57 0 31-25 56-56 56z m64 334c-1 1-9 12-18 19-9 7-26 14-41 16-34 4-64-5-93-21-14-8-35-22-44-30-14-12-22-22-30-31-8-11-25-38-34-56-13-25-18-54-25-81-8-38-21-74-44-106-1-3-3-5-5-7-3-2-6-2-8-4-39-39-77-78-115-117-2-2-5-5-8-5-8 0-13-6-17-12 13-13 26-25 39-38 6 6 13 11 11 21 0 2 3 5 5 7 37 39 75 77 112 116 4 4 7 10 11 13 14 9 27 19 42 25 33 12 67 23 102 33 29 8 55 21 80 38 11 9 18 14 26 21 8 8 24 23 36 42 20 32 35 65 35 103-1 19-6 38-17 54z m-3-41l-36-36-26 25 43 46c4-5 8-9 8-9 5-7 9-16 11-26z m-160-165l-26 25 32 33 26-25z m42 23l27-25c-12-8-27-17-42-24l-17 16z m-112 25l24-23-31-33c-9 10-14 21-17 32z m-25-6c0 9 2 17 5 26l10-10z m132 69l-32-33-25 23 32 33z m-15 33l32 33 24-23-32-33z m-26-76l-32-33-25 23 32 33z m-32-53l27-25-24-26c-12 3-23 10-34 19z m51 53l32 33 27-25-32-33z m41 43l32 33 27-26-32-33z m75 98l-43-45-25 23 33 34c1 0 1 0 2 0 12-1 23-6 33-12z m-78-12l-16 15c13 5 27 9 41 10z m-40 5c3 1 7 3 10 5l21-20-32-33-28 26c12 11 23 18 29 22z m-51-43c4 4 8 8 12 12l29-27-32-33-27 25c5 7 11 14 18 23z m-25-35l24-23-32-33-14 14c3 7 7 15 11 22 3 7 7 13 11 20z m-95-227c10 17 20 33 28 49 8 17 13 35 20 52 9-25 26-41 51-50-37-10-68-28-99-51z m151 66c-3 0-6-1-9-1l17 18 12-12c-7-2-14-4-20-5z m87 43l-29 27 32 33 32-30c-1 0-1-1-1-1-8-9-25-23-34-29z m58 61c-3-5-9-13-15-20l-30 29 32 33 23-22c-3-6-6-13-10-20z m16 33l-20 19 28 29c0-1 0-2 0-2 0-19-2-33-8-46z"/>
<glyph unicode="&#81;" d="M477 442l-33 1c-1 0-1 0-2 0-7 0-13 0-19 0-28-3-48-20-66-41-7-8-15-16-22-23-10-10-21-16-31-21-12-4-25-5-39-4-28 2-56 4-83 8-27 4-53 0-79-9-4-2-9-2-14-2-12 1-23-1-34-4-21-8-35-26-42-54-5-21-6-44-8-66-1-2 2-5 4-5 11 0 23 0 33 0 1 0 1 0 1 0 2 0 4 3 4 6 1 21 1 43 4 65 1 10 5 21 11 31 4 6 12 10 19 14 1 0 2 0 3 0 0-1-1-2-2-3-13-17-20-35-18-56 0-9 0-18 0-28-1-18-6-36-19-51-7-8-9-17-11-28-3-24-11-48-17-72-3-7-3-13 3-19 3-2 1-8 2-12 1-2 3-4 5-4 7-1 14 0 21-1 2 0 3 1 4 1 3 1 3 3 1 6-3 6-6 10-8 15-2 6-4 12-3 16 3 14 8 28 12 42 7 21 24 33 40 46 10 10 20 20 31 29 1 0 3 0 4-1 13-12 16-28 11-44-4-12-1-20 9-28 20-15 34-34 44-56 1-4 6-6 8-10 1-3 2-8 2-11 1-4 2-6 7-6 8 1 15 1 23 1 1 0 3 0 3 0 3 1 3 2 1 5-11 16-22 33-33 49-7 10-14 21-21 30-5 8-5 15-2 24 5 16 9 33 14 49 0 1 2 2 3 3 1 0 1 0 1 0 32-6 64-8 96-4 1 0 3-3 3-4-5-23-9-46-15-69-4-14-9-28-14-41-3-8-2-13 3-20 4-5 5-12 7-18 1-3 1-5 5-5 8 1 15 0 23 1 0 0 1 0 1 0 0 0 1 0 1 0 1 0 3 3 2 4-4 8-7 15-13 23-4 5-5 11-3 18 12 24 24 48 35 72 3 7 7 13 11 20 3 4 7 9 10 14 1 1 3 2 4 3 2 1 5 1 10-1 15-5 31-8 47-12 5-1 11-1 16-3 2-1 5-4 5-7-2-12-4-25-6-38-1-3-4-5-7-8-1-2-4-3-5-4-2-3-3-4-5-5-2-1-5-1-7-1-1 0-1 0-1-1-1 0-3-3-3-4-1-7-1-14 0-21 0-1 3-3 4-3 5 1 10 3 14 5 14 5 24 14 29 30 7 20 14 41 20 62 4 12 2 19-10 24-18 8-37 15-56 21-5 1-6 2-4 7 8 19 6 39 6 59 1 15 3 30 10 44 1 2 3 4 4 5 3-2 9-4 10-7 4-13 6-27 10-40 1-3 3-7 6-8 6-3 13-5 19-5 3 0 5 1 7 2 6 2 8 8 9 15 1 29 2 58 2 87 0 9 3 16 11 21 4 2 8 6 11 9 0 1 0 1 0 1-9 0-16 0-24 0z"/>
<glyph unicode="&#83;" d="M251 229c35 0 70 0 105 0 9 1 12-1 12-11-1-34 0-69 0-103-1-60-51-108-111-109-45-1-81 15-106 53-11 17-17 36-17 56 0 35 0 70 0 104 0 8 2 10 10 10 35 0 71 0 107 0z m11 77c0 16 0 33 0 49 0 7 2 9 8 9 17-1 38 0 54-2 25-2 43-22 44-47 0-20 0-39 0-58 0-7-2-10-9-10-28 1-60 1-88 0-7 0-9 3-9 10 0 16 0 33 0 49z m-23-1c0-16 0-32 0-48 0-7-1-10-8-10-28 1-61 0-89 1-3 0-8 3-8 5 0 23-2 47 2 70 3 25 23 39 53 41 12 1 30 0 42 0 6 0 8-2 8-8 0-17 0-34 0-51z m17 65c-11 2-13 6-8 15 5 8 8 17 12 25 10 24 8 47-3 69-4 7-6 13-9 19 11 9 12 9 18-3 2-6 4-11 7-17 15-31 8-60-7-89-3-6-6-13-10-19z"/>
<glyph unicode="&#82;" d="M9 227c6 23 16 44 33 61 11 11 22 22 33 32 61-62 124-124 186-187-21-20-40-45-70-57-50-19-96-13-138 21-28 23-44 54-46 92z m498 12c0-11 0-23 0-35 0-1-1-3-2-4-17-16-35-31-58-39-23-8-43-4-60 13-18 18-21 39-13 62 6 18 19 33 31 48 16 17 31 34 46 52 8 10 14 22 17 35 4 18-1 33-14 45-18 17-36 19-59 7-18-9-33-23-47-37-4-4-8-8-13-12-6-5-15-5-21 0-6 6-8 15-2 21 25 27 52 53 88 64 32 9 58 0 80-24 25-27 28-60 10-95-9-19-22-35-35-50-12-14-25-26-36-40-7-8-11-18-15-27-5-10-2-19 6-26 7-8 16-10 25-6 8 4 17 7 24 13 12 9 23 20 35 30 3 3 7 4 11 7 1-1 1-1 2-2z m-225-84c-27 27-54 54-81 81 7 7 14 14 21 21 1 1 69 69 70 70 7 8 14 15 22 23 19-26 28-54 28-85-1-47-26-81-60-110z m8 218c-7-7-14-14-21-21-1-1-72-71-72-72-7-7-14-13-20-20-27 28-54 55-81 82 22 24 46 47 79 55 42 10 79 2 114-22 0-1 0-1 1-2z"/>
<glyph unicode="&#84;" d="M20 269c2 14 4 28 7 42 1 6 4 12 6 20 3-4 5-6 7-8 32-40 71-69 121-79 27-6 54-6 81 2 6 1 11 0 16-4 22-22 37-48 42-82-16-3-31-8-47-11-51-8-100-6-149 16-32 15-57 38-78 67-2 2-4 5-6 7 0 10 0 20 0 30z m244 220c13-3 26-5 40-8 5-1 9-3 16-5-108-27-160-104-189-204-5 2-10 2-15 5-14 11-28 22-42 34-2 1-2 6-2 8 19 51 43 99 87 135 24 19 51 31 82 33 2 0 4 1 6 2 5 0 11 0 17 0z m49-145c55-56 100-116 97-200-1-26-9-51-21-74-3-5-7-9-11-12-23-14-46-24-73-28-2 0-3 0-3 0 6 22 14 44 18 68 9 59-8 110-49 153-3 3-5 8-5 11 6 32 22 59 47 82z m117 64c-14-3-28-5-41-8-70-18-119-60-141-129-2-5-4-8-10-9-26-7-53-10-80-2-3 1-6 2-10 4 22 80 56 151 139 183 20 8 42 9 63 13 9 2 18-1 25-7 16-13 33-26 49-39 2-1 4-4 6-6z m-126-265c2-24 1-45-5-66-1-3-3-6-6-6-58-14-117-18-174 7-51 23-79 66-91 119 0 1 0 1 0 2 80-75 173-84 276-56z m117-50c3 18 7 36 8 54 2 55-17 103-49 147-15 21-33 40-50 61 5 2 11 7 18 10 12 6 25 10 38 16 7 3 11 2 16-4 31-35 58-71 72-116 20-67-4-129-53-168z m-3 295c10 0 18 1 26 1 2 0 5-1 6-3 23-34 37-71 38-112-16 41-40 79-70 114z m-129-340c-4-7-7-13-11-20-1-2-4-4-8-4-44-3-86 5-125 28 47-10 94-15 144-4z m-165 398c-30-33-52-71-68-115-5 8-9 14-13 21 0 1 0 4 1 5 19 37 45 67 80 89z"/>
<glyph unicode="&#85;" d="M478 363c-2-8-7-12-14-16-11-6-22-12-32-19-3-1-5-4-5-6 0-2 3-5 5-7 4-3 10-5 15-8 10-6 13-18 7-28-6-9-16-11-27-5-11 7-23 14-34 20-7 4-14 4-20 0-6-4-13-8-19-12-6-4-6-8 0-13 6-3 12-7 18-10 7-5 6-8-1-12-5-3-11-7-16-10-3-2-6-4-6-6 0-2 3-5 6-7 5-3 11-6 17-9 8-3 14-3 22 1 11 6 22 12 33 18 11 6 20 3 26-6 6-10 4-21-6-27-5-3-11-6-15-9-7-4-7-7 0-12 11-6 22-13 33-20 11-6 15-19 10-30-5-10-20-13-31-7-11 6-22 12-33 18-1 1-2 1-3 2-5 2-8 1-9-5 0-7 0-13 0-19 0-10-4-16-13-19-11-4-23 3-24 15-2 11-1 23-1 34 0 4 0 8-1 12-1 6-3 10-8 13-7 4-14 9-22 13-6 4-9 2-9-5 0-7 0-13 0-20 0-8-3-10-11-5-6 3-12 7-18 11-6 3-10 2-10-6 0-6 0-12 0-18 0-10 4-16 12-21 11-6 21-12 32-17 8-5 12-12 11-22-1-12-14-19-26-14-6 3-12 7-18 10-8 4-11 3-11-6 0-13 0-27 0-40 0-11-6-20-16-23-12-4-26 7-26 22 0 13 0 26 0 39 0 1 0 3 0 5-1 5-4 7-9 4-6-3-12-7-18-10-9-5-19-3-24 5-5 7-5 18 1 25 1 2 4 3 7 5 10 6 21 11 31 18 8 4 11 10 11 19 0 6 0 13 0 19 0 8-3 9-9 6-7-5-13-9-20-13-2-1-6-2-8-1-1 1-2 4-2 7-1 8 0 15 0 22 0 7-3 9-10 6-6-4-13-7-18-11-7-4-10-9-10-17 0-13 0-26 0-39 0-13-12-23-24-20-7 1-13 8-13 16-1 7 0 13 0 20 0 9-4 11-12 7-11-7-23-13-34-20-10-6-19-5-28 1-11 7-10 27 2 34 10 6 20 11 30 17 3 1 6 3 10 5 2 2 4 4 6 6-2 2-4 5-7 6-5 3-10 6-14 8-11 6-15 17-9 27 5 10 18 14 28 8 10-6 21-12 31-18 9-6 17-6 26-1 8 5 16 10 24 15-2 1-3 2-4 3-8 4-16 9-24 13-7 5-7 8 0 13 6 3 12 6 17 10 6 4 6 8 0 12-6 4-12 7-18 10-6 4-13 3-20 0-11-7-22-14-33-20-11-6-25-2-29 9-3 9 0 19 9 24 5 3 10 6 15 9 3 2 6 4 6 7 0 2-3 4-6 6-12 7-23 13-35 20-11 6-15 19-9 30 5 9 20 14 30 8 11-6 22-13 33-19 2-1 3-2 5-3 6-2 9-1 9 5 1 6 0 12 0 18 0 3 0 7 1 9 3 9 11 14 19 13 9-1 17-8 18-17 0-8 0-17 0-25 0-6 0-12 0-18 0-8 3-14 10-18 6-4 13-7 19-11 6-3 10-1 10 5 0 8 0 14 0 22 0 8 3 10 11 6 6-3 12-6 19-10 7-3 10-1 10 6 0 7 0 13 0 20 0 8-4 14-11 18-11 7-22 13-33 20-9 5-12 13-10 22 4 12 16 17 28 11 6-3 11-7 17-9 6-4 10-1 10 6 0 12 0 24 0 37-2 14 4 23 18 28 2 0 3 0 5 0 14-5 19-14 18-29 0-12 0-23 0-35 0-9 4-11 12-7 5 3 10 6 15 9 11 6 22 3 28-7 5-9 2-20-9-26-11-7-23-13-34-20-7-4-11-9-11-18 0-6 0-13 0-20 0-7 4-9 10-5 6 4 13 8 19 11 7 4 10 3 10-5 0-9 0-16 0-25 0-6 4-8 10-5 7 3 12 6 19 10 8 4 12 10 12 19 0 15-1 29 0 44 0 4 2 8 4 11 4 7 14 8 23 5 7-2 10-8 11-16 0-7 0-14 0-21 0-7 3-8 10-6 1 1 2 1 3 2 12 6 24 13 35 19 8 5 16 5 22-1 4-3 6-9 9-13-3-5-3-8-3-11z"/>
<glyph unicode="&#86;" d="M399 302c0-3-1-5-3-7l-133-133c-2-2-5-3-7-3-2 0-5 1-7 3l-133 133c-2 2-3 4-3 7 0 2 1 4 3 6l15 15c1 1 4 2 6 2 3 0 5-1 7-2l112-113 112 113c2 1 4 2 7 2 2 0 5-1 6-2l15-15c2-2 3-4 3-6z"/>
<glyph unicode="&#87;" d="M344 357c0-3-1-5-3-7l-112-112 112-113c2-1 3-4 3-6 0-3-1-5-3-7l-14-14c-2-2-5-3-7-3-2 0-5 1-7 3l-133 133c-2 2-3 4-3 7 0 2 1 4 3 6l133 133c2 2 5 3 7 3 2 0 5-1 7-3l14-14c2-2 3-4 3-6z"/>
<glyph unicode="&#88;" d="M335 238c0-3-1-5-3-7l-133-133c-2-2-5-3-7-3-2 0-5 1-7 3l-14 14c-2 2-3 4-3 7 0 2 1 5 3 6l112 113-112 112c-2 2-3 4-3 7 0 2 1 4 3 6l14 14c2 2 5 3 7 3 2 0 5-1 7-3l133-133c2-2 3-4 3-6z"/>
<glyph unicode="&#89;" d="M399 174c0-3-1-5-3-7l-15-14c-1-2-4-3-6-3-3 0-5 1-7 3l-112 112-112-112c-2-2-4-3-7-3-2 0-5 1-6 3l-15 14c-2 2-3 4-3 7 0 2 1 4 3 6l133 133c2 2 5 3 7 3 2 0 5-1 7-3l133-133c2-2 3-4 3-6z"/>
<glyph unicode="&#90;" d="M479 165c0-11-4-19-11-26l-21-22c-8-7-16-10-26-10-11 0-19 3-26 10l-139 139-139-139c-7-7-15-10-26-10-10 0-18 3-25 10l-22 22c-7 7-11 15-11 26 0 10 4 18 11 26l186 186c7 7 16 10 26 10 10 0 19-3 26-10l186-186c7-8 11-16 11-26z"/>
<glyph unicode="&#48;" d="M479 311c0-10-4-19-11-26l-186-186c-7-7-16-11-26-11-10 0-19 4-26 11l-186 186c-7 7-11 16-11 26 0 10 4 19 11 26l21 21c8 7 17 11 26 11 11 0 19-4 26-11l139-139 139 139c7 7 15 11 26 11 9 0 18-4 26-11l21-21c7-8 11-16 11-26z"/>
<glyph unicode="&#49;" d="M303 63l-186 186c-7 7-10 15-10 25 0 11 3 19 10 26l186 186c7 7 16 11 26 11 10 0 19-4 26-11l22-21c7-7 10-16 10-26 0-10-3-19-10-26l-139-139 139-138c7-8 10-16 10-26 0-10-3-19-10-26l-22-21c-7-7-16-11-26-11-10 0-19 4-26 11z"/>
<glyph unicode="&#50;" d="M405 274c0-10-3-18-10-26l-186-186c-7-7-16-10-26-10-10 0-19 3-26 10l-22 22c-7 7-10 16-10 26 0 10 3 18 10 25l139 139-139 139c-7 7-10 16-10 26 0 10 3 19 10 26l22 21c7 7 16 11 26 11 10 0 19-4 26-11l186-186c7-7 10-16 10-26z"/>
<glyph unicode="&#51;" d="M256 481c0 0 61-172 61-172 0 0 164 0 164 0 0 0-134-100-134-100 0 0 48-178 48-178 0 0-139 106-139 106 0 0-139-106-139-106 0 0 48 178 48 178 0 0-134 100-134 100 0 0 164 0 164 0 0 0 61 172 61 172"/>
<glyph unicode="&#52;" d="M481 309c0 0-134-100-134-100 0 0 48-178 48-178 0 0-139 106-139 106 0 0-139-106-139-106 0 0 48 178 48 178 0 0-134 100-134 100 0 0 164 0 164 0 0 0 61 172 61 172 0 0 61-172 61-172 0 0 164 0 164 0m-225-122c0 0 77-63 77-63 0 0-32 91-32 91 0 0 74 58 74 58 0 0-90-2-90-2 0 0-29 104-29 104 0 0-28-104-28-104 0 0-90 2-90 2 0 0 73-58 73-58 0 0-32-91-32-91 0 0 77 63 77 63"/>
<glyph unicode="&#53;" d="M392 142c70-24 105-45 105-62 0 0 0-54 0-54 0 0-241 0-241 0 0 0-241 0-241 0 0 0 0 54 0 54 0 17 35 38 105 62 32 12 54 24 65 36 12 12 18 28 18 48 0 8-4 16-12 25-7 10-12 22-16 38-1 4-2 7-5 9-2 2-4 3-7 4-2 1-4 4-7 9-2 5-4 12-4 22 0 5 0 10 2 13 2 4 3 6 5 6 0 0 2 2 2 2-3 17-5 32-6 45-2 19 5 38 21 58 15 19 42 29 80 29 38 0 65-10 81-29 16-20 22-39 20-58 0 0-6-45-6-45 6-2 9-10 9-21 0-10-2-17-4-22-3-5-5-8-7-9-3-1-5-2-7-4-3-2-4-5-5-9-3-17-8-29-16-38-8-9-12-17-12-25 0-20 6-36 18-48 12-12 34-24 65-36"/>
<glyph unicode="&#54;" d="M512 31c0 0-115 0-115 0 0 0 0 77 0 77 0 18-5 32-15 41-10 9-37 24-79 46 14 10 21 24 21 43 0 5-3 11-7 16-5 6-8 15-10 27 0 2-3 5-7 8-4 2-6 10-7 21 0 8 2 14 6 16-2 11-3 21-4 30-1 13 2 27 12 40 9 14 25 21 48 21 24 0 40-7 49-21 10-13 14-27 13-40 0 0-4-30-4-30 4-2 6-8 6-16-1-11-3-19-7-21-4-3-7-6-8-8-2-12-5-21-9-27-5-5-7-11-7-16 0-15 4-26 11-34 7-8 20-17 39-25 39-16 61-29 67-41 2-2 3-13 4-31 1-18 2-35 3-52 0 0 0-24 0-24m-250 134c62-27 93-48 93-64 0 0 0-70 0-70 0 0-355 0-355 0 0 0 0 94 0 94 0 15 14 28 43 40 26 11 44 22 53 33 10 11 15 26 15 45 0 7-4 14-10 22-7 8-11 20-13 35-1 3-4 7-9 11-6 4-9 14-10 29 0 5 0 9 1 12 1 3 2 5 4 6 0 0 2 1 2 1-2 16-4 30-5 42-2 17 4 35 17 53 12 18 34 27 65 27 30 0 52-9 65-27 12-18 18-36 16-53 0 0-5-42-5-42 5-2 8-9 8-19-2-15-5-25-11-29-5-4-8-8-9-11-2-15-6-27-13-35-6-8-9-15-9-22 0-19 4-34 14-45 9-11 27-22 53-33"/>
<glyph unicode="&#55;" d="M421 229l0-138c0-5-2-9-6-12-3-4-8-6-13-6l-109 0 0 110-74 0 0-110-109 0c-5 0-10 2-13 6-4 3-6 7-6 12l0 138c0 0 0 0 1 0 0 1 0 1 0 1l164 136 164-136c0 0 1-1 1-1z m63 19l-17-21c-2-2-4-3-6-3l-1 0c-3 0-5 1-6 2l-198 165-198-165c-2-2-4-2-7-2-2 0-4 1-6 3l-17 21c-2 2-2 4-2 7 0 3 1 5 3 6l205 171c6 5 14 8 22 8 8 0 16-3 22-8l69-58 0 56c0 2 1 5 3 6 2 2 4 3 7 3l54 0c3 0 5-1 7-3 2-1 3-4 3-6l0-117 62-52c2-1 3-3 3-6 0-3 0-5-2-7z"/>
<glyph unicode="&#56;" d="M375 439l-238 0c-12 0-23-5-32-14-9-9-14-19-14-32l0-238c0-12 5-23 14-32 9-9 20-13 32-13l238 0c12 0 23 4 32 13 9 9 14 20 14 32l0 238c0 13-5 23-14 32-9 9-20 14-32 14z m82-46l0-238c0-22-8-42-24-58-16-16-35-24-58-24l-238 0c-23 0-42 8-58 24-16 16-24 36-24 58l0 238c0 23 8 42 24 58 16 16 35 24 58 24l238 0c23 0 42-8 58-24 16-16 24-35 24-58z"/>
<glyph unicode="&#57;" d="M421 246l0-91c0-22-8-42-25-58-16-16-35-24-58-24l-237 0c-23 0-42 8-59 24-16 16-24 36-24 58l0 238c0 23 8 42 24 58 17 16 36 24 59 24l237 0c12 0 23-2 34-7 3-1 4-3 5-6 0-4 0-6-3-9l-14-14c-2-1-4-2-6-2-1 0-2 0-3 0-4 1-9 2-13 2l-237 0c-13 0-24-5-33-14-9-9-13-19-13-32l0-238c0-12 4-23 13-32 9-9 20-13 33-13l237 0c13 0 24 4 33 13 9 9 13 20 13 32l0 73c0 2 1 5 3 6l18 19c2 1 4 2 6 2 2 0 3 0 4 0 4-2 6-5 6-9z m66 140l-233-233c-5-4-10-6-16-6-7 0-12 2-17 6l-122 123c-5 5-7 10-7 17 0 6 2 11 7 16l31 31c5 5 10 7 16 7 7 0 12-2 17-7l75-75 185 185c4 5 10 7 16 7 6 0 12-2 16-7l32-31c4-5 6-10 6-17 0-6-2-11-6-16z"/>
<glyph unicode="&#33;" d="M347 274c0 36-12 66-37 91-25 25-55 37-91 37-35 0-65-12-90-37-25-25-38-55-38-91 0-35 13-65 38-90 25-25 55-38 90-38 36 0 66 13 91 38 25 25 37 55 37 90z m147-237c0-10-4-19-11-26-7-7-16-11-26-11-10 0-19 4-26 11l-98 98c-34-24-72-36-114-36-27 0-53 5-78 16-25 11-46 25-64 43-18 18-32 39-43 64-10 25-16 51-16 78 0 28 6 54 16 78 11 25 25 47 43 65 18 18 39 32 64 43 25 10 51 15 78 15 28 0 54-5 79-15 24-11 46-25 64-43 18-18 32-40 43-65 10-24 16-50 16-78 0-42-12-80-36-114l98-98c7-7 11-15 11-25z"/>
<glyph unicode="&#34;" d="M371 512c7 0 13-3 18-8 5-5 8-11 8-18 0 0 0-435 0-435 0 0-77 92-77 92 0 0 0 318 0 318 0 7-3 13-8 18-5 5-11 7-18 7 0 0-51 0-51 0 0 17 7 26 21 26 0 0 107 0 107 0m-128-77c7 0 13-2 18-7 5-6 8-12 8-18 0 0 0-410 0-410 0 0-77 92-77 92 0 0-77-92-77-92 0 0 0 410 0 410 0 17 7 25 21 25 0 0 107 0 107 0"/>
<glyph unicode="&#35;" d="M146 155l0-54c0-8-2-15-8-20-5-5-12-8-19-8l-92 0c-7 0-14 3-19 8-5 5-8 12-8 20l0 54c0 8 3 15 8 20 5 5 12 8 19 8l92 0c7 0 14-3 19-8 6-5 8-12 8-20z m0 147l0-55c0-8-2-14-8-20-5-5-12-8-19-8l-92 0c-7 0-14 3-19 8-5 6-8 12-8 20l0 55c0 7 3 14 8 19 5 5 12 8 19 8l92 0c7 0 14-3 19-8 6-5 8-12 8-19z m183-147l0-54c0-8-3-15-8-20-5-5-12-8-19-8l-92 0c-7 0-14 3-19 8-5 5-8 12-8 20l0 54c0 8 3 15 8 20 5 5 12 8 19 8l92 0c7 0 14-3 19-8 5-5 8-12 8-20z m-183 293l0-55c0-7-2-14-8-19-5-6-12-8-19-8l-92 0c-7 0-14 2-19 8-5 5-8 12-8 19l0 55c0 8 3 14 8 19 5 6 12 8 19 8l92 0c7 0 14-2 19-8 6-5 8-11 8-19z m183-146l0-55c0-8-3-14-8-20-5-5-12-8-19-8l-92 0c-7 0-14 3-19 8-5 6-8 12-8 20l0 55c0 7 3 14 8 19 5 5 12 8 19 8l92 0c7 0 14-3 19-8 5-5 8-12 8-19z m183-147l0-54c0-8-3-15-8-20-5-5-12-8-19-8l-92 0c-7 0-14 3-19 8-6 5-8 12-8 20l0 54c0 8 2 15 8 20 5 5 12 8 19 8l92 0c7 0 14-3 19-8 5-5 8-12 8-20z m-183 293l0-55c0-7-3-14-8-19-5-6-12-8-19-8l-92 0c-7 0-14 2-19 8-5 5-8 12-8 19l0 55c0 8 3 14 8 19 5 6 12 8 19 8l92 0c7 0 14-2 19-8 5-5 8-11 8-19z m183-146l0-55c0-8-3-14-8-20-5-5-12-8-19-8l-92 0c-7 0-14 3-19 8-6 6-8 12-8 20l0 55c0 7 2 14 8 19 5 5 12 8 19 8l92 0c7 0 14-3 19-8 5-5 8-12 8-19z m0 146l0-55c0-7-3-14-8-19-5-6-12-8-19-8l-92 0c-7 0-14 2-19 8-6 5-8 12-8 19l0 55c0 8 2 14 8 19 5 6 12 8 19 8l92 0c7 0 14-2 19-8 5-5 8-11 8-19z"/>
<glyph unicode="&#36;" d="M411 167l-182 0 0 0c0 0 0 0 0 0-6 0-11-6-11-12 0 0 0 0 0-1l0-53 0 0c0-6 5-11 11-11l0 0 182 0 0 0c6 0 11 5 11 11l0 53c0 1 0 1 0 1 0 6-5 12-11 12z m-256 0l-54 0c-6 0-11-6-11-12l0-54c0-6 5-11 11-11l54 0c6 0 12 5 12 11l0 54c0 6-6 12-12 12z m256 128l-182 0 0 0c0 0 0 0 0 0-6 0-11-6-11-12 0 0 0 0 0-1l0-53 0 0c0-6 5-11 11-11l0 0 182 0 0 0c6 0 11 5 11 11l0 53c0 1 0 1 0 1 0 6-5 12-11 12z m-256 0l-54 0c-6 0-11-6-11-12l0-54c0-6 5-11 11-11l54 0c6 0 12 5 12 11l0 54c0 6-6 12-12 12z m63 62l0 0c0-6 5-12 11-12l0 0 182 0 0 0c6 0 11 6 11 12l0 53c0 0 0 0 0 1 0 6-5 11-11 11l0 0-182 0 0 0c0 0 0 0 0 0-6 0-11-5-11-11 0-1 0-1 0-1l0-53z m-63 65l-54 0c-6 0-11-5-11-11l0-54c0-6 5-12 11-12l54 0c6 0 12 6 12 12l0 54c0 6-6 11-12 11z"/>
<glyph unicode="&#37;" d="M128 73l256 0 0 73-256 0z m0 183l256 0 0 110-46 0c-7 0-14 2-19 8-5 5-8 12-8 19l0 46-183 0z m329-18c0 5-2 9-5 13-4 3-8 5-13 5-5 0-9-2-13-5-4-4-5-8-5-13 0-5 1-10 5-13 4-4 8-6 13-6 5 0 9 2 13 6 3 3 5 8 5 13z m37 0l0-119c0-3-1-5-3-7-2-1-4-2-6-2l-64 0 0-46c0-8-3-14-8-19-6-6-12-8-20-8l-274 0c-8 0-14 2-20 8-5 5-8 11-8 19l0 46-64 0c-2 0-4 1-6 2-2 2-3 4-3 7l0 119c0 15 6 28 16 38 11 11 24 17 39 17l18 0 0 155c0 8 3 14 8 19 6 6 12 8 20 8l192 0c7 0 16-1 25-5 9-4 16-9 22-14l43-43c5-6 10-13 14-22 4-9 6-18 6-25l0-73 18 0c15 0 28-6 39-17 10-10 16-23 16-38z"/>
<glyph unicode="&#39;" d="M293 357l0-128c0-3-1-5-3-7-2-2-4-3-7-3l-91 0c-3 0-5 1-7 3-1 2-2 4-2 7l0 18c0 3 1 5 2 6 2 2 4 3 7 3l64 0 0 101c0 2 1 4 3 6 1 2 3 3 6 3l18 0c3 0 5-1 7-3 2-2 3-4 3-6z m118-101c0 28-7 54-20 78-14 24-33 43-57 57-24 13-50 20-78 20-28 0-54-7-78-20-24-14-43-33-57-57-13-24-20-50-20-78 0-28 7-54 20-78 14-24 33-43 57-57 24-13 50-20 78-20 28 0 54 7 78 20 24 14 43 33 57 57 13 24 20 50 20 78z m64 0c0-40-9-77-29-110-20-34-46-60-80-80-33-20-70-29-110-29-40 0-77 9-110 29-34 20-60 46-80 80-20 33-29 70-29 110 0 40 9 77 29 110 20 34 46 60 80 80 33 20 70 29 110 29 40 0 77-9 110-29 34-20 60-46 80-80 20-33 29-70 29-110z"/>
<glyph unicode="&#40;" d="M288 466c58 0 107-21 148-62 40-40 61-90 61-148 0-58-21-108-61-148-41-41-90-62-148-62-47 0-90 15-129 45 0 0 36 39 36 39 28-20 59-31 93-31 43 0 80 16 110 46 31 31 46 68 46 111 0 44-15 81-46 112-30 30-67 46-110 46-43 0-79-15-109-44-31-30-47-66-48-108 0 0 73 0 73 0 0 0-94-105-94-105 0 0-95 105-95 105 0 0 64 0 64 0 1 57 22 105 63 145 40 39 89 59 146 59m-19-97c0 0 36 0 36 0 0 0 0-105 0-105 0 0 67-66 67-66 0 0-26-26-26-26 0 0-77 77-77 77 0 0 0 120 0 120"/>
<glyph unicode="&#41;" d="M256 512c-141 0-256-115-256-256 0-141 115-256 256-256 141 0 256 115 256 256 0 141-115 256-256 256z m0-469c-118 0-213 95-213 213 0 118 95 213 213 213 118 0 213-95 213-213 0-118-95-213-213-213z m95 360c-11 5-23 1-29-9l-72-145-43 43c-8 9-22 9-30 0-8-8-8-21 0-30l64-64c4-4 9-6 15-6 1 0 2 0 3 0 7 1 13 6 16 12l85 170c6 11 1 24-9 29z m-116-296l42 0 0-22-42 0z m0 341l42 0 0-21-42 0z m-171-171l43 0 0-21-43 0z m341 0l43 0 0-21-43 0z"/>
<glyph unicode="&#42;" d="M399 395c0-15-8-31-24-49-17-18-33-35-50-51-17-16-25-29-25-39 0-10 8-23 25-39 17-16 33-32 50-50 16-17 24-34 24-49 0 0 0-61 0-61 0-11-14-24-44-37-29-13-62-20-99-20-37 0-70 7-99 20-30 13-44 26-44 37 0 0 0 61 0 61 0 15 8 32 24 49 17 18 33 34 50 50 17 16 25 29 25 39 0 10-8 23-25 39-17 16-33 33-50 51-16 18-24 34-24 49 0 0 0 61 0 61 0 11 14 23 44 36 30 13 63 20 99 20 36 0 69-7 99-20 30-13 44-25 44-36 0 0 0-61 0-61m-246 58c0 0-10-8-10-8-1-2 0-5 2-7 32-17 69-26 111-26 45 0 83 8 113 25 4 4 2 9-9 16-32 18-67 27-103 27-41 0-76-9-104-27m116-197c0 6 1 12 2 17 2 5 5 11 10 17 4 6 8 10 10 13 2 2 7 7 16 15 8 9 13 13 15 15 31 31 47 52 47 62 0 0 1 26 1 26-34-19-72-28-114-28-42 0-80 9-114 28 0 0 2-26 2-26 0-11 16-31 46-62 3-2 6-6 12-11 5-5 9-9 12-11 0 0 9-10 9-10 0 0 3-4 9-11 6-7 8-10 6-10-2 0-1-4 4-12 5-8 6-12 2-12 0-3 0-7-1-10 0-3-1-6-3-9-2-3-3-6-4-8-1-3-3-5-6-9 0 0-6-8-6-8 0 0-2-2-7-8-6-5-8-8-9-7 0 0-3-3-9-9-6-5-9-8-9-8-30-30-46-51-46-62 0 0 0-34 0-34 3 1 14 5 34 12 20 6 36 14 47 22 12 8 18 18 18 29 0 11 4 16 13 16 9 0 13-5 13-16 0-11 6-21 17-29 11-8 28-16 48-22 21-7 33-11 35-12 0 0 0 34 0 34 0 10-16 31-47 62-2 2-5 5-11 10-6 6-10 10-11 11-2 2-5 5-10 10-4 5-7 8-9 11-2 3-4 6-6 10-2 5-4 8-5 12 0 4-1 8-1 12"/>
<glyph unicode="&#43;" d="M277 426l0 22 11 0c6 0 11 5 11 11l0 42c0 6-5 11-11 11l-64 0c-6 0-11-5-11-11l0-42c0-6 5-11 11-11l11 0 0-22c-20-2-38-7-55-14l-23 22-39 39-75-75 49-49c-31-37-49-84-49-136 0-117 95-213 213-213 118 0 213 96 213 213 0 111-84 202-192 213z m-42 65l42 0 0-22-42 0z m-162-93l45 45 25-25-45-45z m183-355c-94 0-171 76-171 170 0 94 77 171 171 171 94 0 171-77 171-171 0-94-77-170-171-170z m-17 267c-8 9-22 9-30 0-8-8-8-22 0-30l42-42-56-78c-6-10-2-23 8-29 3-2 7-3 10-3 8 0 15 4 19 11l64 92c5 9 3 19-4 26z"/>
<glyph unicode="&#44;" d="M90 357l0 0c0-6 5-12 11-12l0 0 310 0 0 0c6 0 11 6 11 12l0 0 0 54c0 6-5 11-11 11l-310 0c-6 0-11-5-11-11 0-1 0-1 0-1z m321-63l-310 0c-6 0-11-5-11-11 0 0 0-1 0-1l0-53 0 0c0-6 5-11 11-11l0 0 310 0 0 0c6 0 11 5 11 11l0 0 0 54c0 6-5 11-11 11z m0-127l-310 0c-6 0-11-6-11-12 0 0 0 0 0-1l0-53 0 0c0-6 5-11 11-11l0 0 310 0 0 0c6 0 11 5 11 11l0 0 0 54c0 6-5 12-11 12z"/>
<glyph unicode="&#45;" d="M350 445l-188 0c-8 0-15-7-15-16l0-351c0-6 5-11 11-11 3 0 6 1 8 3l0 0 82 83 1 0c1 2 4 3 7 3 3 0 6-1 8-3l0 0 81-82c2-2 5-4 9-4 6 0 11 5 11 11l0 351c0 9-7 16-15 16z"/>
<glyph unicode="&#46;" d="M385 474l0 0 0 20c0 5-4 9-8 9l-169 0-133-133 0-301c0-5 4-9 9-9l293 0c4 0 8 4 8 9l0 13 0 0z m-259-363l0 242 91 0c5 0 9 4 9 8l0 91 108 0 0-341z m303 274l-18 0 0-343c0-4-3-8-8-8l-253 0 0-17c0-5 4-8 8-8l271 0c4 0 8 3 8 8l0 360c0 4-4 8-8 8z"/>
<glyph unicode="&#47;" d="M443 393l-18 0 0-343c0-4-4-7-8-7l-253 0 0-18c0-5 3-8 8-8l271 0c4 0 7 3 7 8l0 360c0 4-3 8-7 8z m-44-317l0 360c0 4-3 8-7 8l-18 0 0-343c0-4-4-7-8-7l-253 0 0-18c0-4 3-8 7-8l272 0c4 0 7 4 7 8z m-51 51l0 360c0 5-3 8-8 8l-271 0c-4 0-7-3-7-8l0-360c0-4 3-8 7-8l271 0c5 0 8 4 8 8z"/>
<glyph unicode="&#58;" d="M430 393c-1 20-17 36-37 37l0 0-274 0 0 0c-20-1-36-17-37-37l0 0 0-274 0 0c1-20 17-36 37-37l0 0 274 0 0 0c20 1 36 17 37 37l0 0 0 274z m-261-258c-20 0-36 16-36 36 0 20 16 36 36 36 20 0 36-16 36-36 0-20-16-36-36-36z m0 85c-20 0-36 16-36 36 0 20 16 36 36 36 20 0 36-16 36-36 0-20-16-36-36-36z m0 87c-20 0-36 16-36 36 0 20 16 36 36 36 20 0 36-16 36-36 0-20-16-36-36-36z m174-174c-20 0-36 16-36 36 0 20 16 36 36 36 20 0 36-16 36-36 0-20-16-36-36-36z m0 87c-20 0-36 16-36 36 0 20 16 36 36 36 20 0 36-16 36-36 0-20-16-36-36-36z m0 87c-20 0-36 16-36 36 0 20 16 36 36 36 20 0 36-16 36-36 0-20-16-36-36-36z"/>
<glyph unicode="&#59;" d="M430 393c-1 20-17 36-37 37l0 0-274 0 0 0c-20-1-36-17-37-37l0 0 0-274 0 0c1-20 17-36 37-37l0 0 274 0 0 0c20 1 36 17 37 37l0 0 0 274z m-261-258c-20 0-36 16-36 36 0 20 16 36 36 36 20 0 36-16 36-36 0-20-16-36-36-36z m0 172c-20 0-36 16-36 36 0 20 16 36 36 36 20 0 36-16 36-36 0-20-16-36-36-36z m87-87c-20 0-36 16-36 36 0 20 16 36 36 36 20 0 36-16 36-36 0-20-16-36-36-36z m87-87c-20 0-36 16-36 36 0 20 16 36 36 36 20 0 36-16 36-36 0-20-16-36-36-36z m0 174c-20 0-36 16-36 36 0 20 16 36 36 36 20 0 36-16 36-36 0-20-16-36-36-36z"/>
<glyph unicode="&#60;" d="M435 486c8 0 14-2 19-7 4-5 7-11 7-18 0 0 0-435 0-435 0 0-103 0-103 0 0 0 0 435 0 435 0 17 7 25 21 25 0 0 56 0 56 0m-153-153c7 0 13-3 18-8 5-5 7-11 7-18 0 0 0-281 0-281 0 0-102 0-102 0 0 0 0 281 0 281 0 17 7 26 20 26 0 0 57 0 57 0m-154-154c8 0 14-2 18-7 5-6 8-12 8-18 0 0 0-128 0-128 0 0-103 0-103 0 0 0 0 128 0 128 0 17 7 25 21 25 0 0 56 0 56 0"/>
<glyph unicode="&#61;" d="M293 119l0 54c0 3-1 5-3 7-2 2-4 3-7 3l-54 0c-3 0-5-1-7-3-2-2-3-4-3-7l0-54c0-3 1-5 3-7 2-1 4-2 7-2l54 0c3 0 5 1 7 2 2 2 3 4 3 7z m-1 107l5 131c0 2-1 4-3 6-2 2-4 3-7 3l-62 0c-3 0-5-1-7-3-2-2-3-4-3-6l5-131c0-2 1-3 3-5 1-1 4-2 6-2l53 0c3 0 5 1 7 2 2 2 3 3 3 5z m-4 267l219-402c7-12 7-24 0-36-3-6-8-10-13-14-6-3-12-4-19-4l-438 0c-7 0-13 1-19 4-5 4-10 8-13 14-7 12-7 24 0 36l219 402c3 6 8 10 13 14 6 3 12 5 19 5 7 0 13-2 19-5 5-4 10-8 13-14z"/>
<glyph unicode="&#62;" d="M256 475c40 0 77-9 110-29 34-20 60-46 80-80 20-33 29-70 29-110 0-40-9-77-29-110-20-34-46-60-80-80-33-20-70-29-110-29-40 0-77 9-110 29-34 20-60 46-80 80-20 33-29 70-29 110 0 40 9 77 29 110 20 34 46 60 80 80 33 20 70 29 110 29z m37-356l0 54c0 3-1 5-3 7-2 2-4 3-6 3l-55 0c-3 0-5-1-7-3-2-2-3-4-3-7l0-54c0-2 1-5 3-6 2-2 4-3 7-3l55 0c2 0 4 1 6 2 2 2 3 4 3 7z m-1 98l5 178c0 2-1 4-3 5-2 2-4 2-7 2l-62 0c-3 0-5 0-7-2-2-1-3-3-3-5l5-178c0-1 1-3 3-5 1-1 4-2 6-2l53 0c3 0 5 1 7 2 2 2 3 4 3 5z"/>
<glyph unicode="&#63;" d="M311 155l0-64c0-5-2-9-6-12-3-4-7-6-12-6l-74 0c-5 0-9 2-12 6-4 3-6 7-6 12l0 64c0 5 2 10 6 13 3 4 7 6 12 6l74 0c5 0 9-2 12-6 4-3 6-8 6-13z m8 302l-8-219c0-5-2-10-5-13-4-4-8-6-13-6l-74 0c-5 0-9 2-13 6-3 3-5 8-5 13l-8 219c-1 5 1 9 5 13 3 4 7 5 12 5l92 0c5 0 9-1 12-5 4-4 6-8 5-13z"/>
<glyph unicode="&#64;" d="M24 154l-24-144c0-3 1-6 2-8 0 0 0 0 0 0 2-1 5-2 8-2l144 25c3 0 6 2 6 5 1 3 1 6-2 8l-28 29 76 75c3 4 3 9 0 12l-52 52c-3 4-9 4-12 0l-76-75-28 28c-2 2-5 3-8 2-3-1-5-4-6-7z m464 204l24 144c0 3-1 6-2 8 0 0 0 0 0 0-2 1-5 2-8 2l-144-25c-3 0-6-2-6-5-1-3-1-6 2-8l28-29-76-75c-3-4-3-9 0-12l52-52c3-4 9-4 12 0l76 75 28-28c2-2 5-3 8-2 3 1 5 4 6 7z m-130-334l144-24c3 0 6 1 8 2 0 0 0 0 0 0 1 2 2 5 2 8l-25 144c0 3-2 6-5 6-3 1-6 1-8-2l-29-28-75 76c-4 3-9 3-12 0l-52-52c-4-3-4-9 0-12l75-76-28-28c-2-2-3-5-2-8 1-3 4-5 7-6z m-204 464l-144 24c-3 0-6-1-8-2 0 0 0 0 0 0-1-2-2-5-2-8l25-144c0-3 2-6 5-6 3-1 6-1 8 2l29 28 75-76c4-3 9-3 12 0l52 52c4 3 4 9 0 12l-75 76 28 28c2 2 3 5 2 8-1 3-4 5-7 6z"/>
<glyph unicode="&#91;" d="M184 54l24 145c1 3 0 5-2 7 0 0 0 0 0 0-2 2-5 3-7 3l-145-25c-3 0-5-2-6-5-1-3 0-7 2-9l28-28-76-76c-3-3-3-8 0-11l53-53c3-3 8-3 11 0l76 76 28-28c3-2 6-3 9-2 3 1 5 3 5 6z m144 404l-24-145c-1-3 0-5 2-7 0 0 0 0 0 0 2-2 5-3 7-3l145 25c3 0 5 2 6 5 1 3 0 7-2 9l-28 28 76 76c3 3 3 8 0 11l-53 53c-3 3-8 3-11 0l-76-76-28 28c-3 2-6 3-9 2-3-1-5-3-5-6z m130-274l-145 24c-3 1-5 0-7-2 0 0 0 0 0 0-2-2-3-5-3-7l25-145c0-3 2-5 5-6 3-1 7 0 9 2l28 28 76-76c3-3 8-3 11 0l53 53c3 3 3 8 0 11l-76 76 28 28c2 3 3 6 2 9-1 3-3 5-6 5z m-404 144l145-24c3-1 5 0 7 2 0 0 0 0 0 0 2 2 3 5 3 7l-25 145c0 3-2 5-5 6-3 1-6 0-9-2l-28-28-76 76c-3 3-8 3-11 0l-53-53c-3-3-3-8 0-11l76-76-28-28c-2-3-3-6-2-9 1-3 3-5 6-5z"/>
<glyph unicode="&#93;" d="M509 340c0 0 0 0 0 0l-63 63c-12-8-29-7-39 4-11 10-12 27-4 39l-63 63c-4 4-9 4-13 0l-324-324c0 0 0 0 0 0-4-4-4-9 0-13l0 0 63-63c12 8 29 7 39-4 11-10 12-27 4-39l63-62c0-1 0-1 0-1 4-4 9-4 13 0l0 0 324 324c4 4 4 9 0 13z m-71-13l-253-253c-4-3-9-3-13 0l-98 98c-3 4-3 9 0 13l253 253c4 3 9 3 13 0l98-98c3-4 3-9 0-13z m-121-79l-35 17 4 36c1 2 0 3-1 3-1 1-2 0-3 0l-26-27-34 17c-1 0-2 0-3-1-1-1-1-2-1-3l17-34-27-26c0-1-1-2 0-3 0-1 1-1 3-1l36 4 17-35c0-1 1-2 2-2 2 1 2 1 3 2l9 39 39 9c0 0 0 1 1 1 0 0 0 1 1 2 0 1-1 2-2 2z"/>
<glyph unicode="&#94;" d="M512 128l0-37c0-5-2-9-5-12-4-4-8-6-13-6l-476 0c-5 0-9 2-13 6-3 3-5 7-5 12l0 37c0 5 2 9 5 13 4 3 8 5 13 5l476 0c5 0 9-2 13-5 3-4 5-8 5-13z m0 110l0-37c0-5-2-9-5-13-4-3-8-5-13-5l-476 0c-5 0-9 2-13 5-3 4-5 8-5 13l0 37c0 5 2 9 5 13 4 3 8 5 13 5l476 0c5 0 9-2 13-5 3-4 5-8 5-13z m0 109l0-36c0-5-2-9-5-13-4-4-8-5-13-5l-476 0c-5 0-9 1-13 5-3 4-5 8-5 13l0 36c0 5 2 10 5 13 4 4 8 6 13 6l476 0c5 0 9-2 13-6 3-3 5-8 5-13z m0 110l0-36c0-5-2-10-5-13-4-4-8-6-13-6l-476 0c-5 0-9 2-13 6-3 3-5 8-5 13l0 36c0 5 2 9 5 13 4 4 8 5 13 5l476 0c5 0 9-1 13-5 3-4 5-8 5-13z"/>
<glyph unicode="&#95;" d="M347 384l0-256c0-5-1-9-5-13-4-3-8-5-13-5-5 0-9 2-13 5l-128 128c-3 4-5 8-5 13 0 5 2 9 5 13l128 128c4 3 8 5 13 5 5 0 9-2 13-5 4-4 5-8 5-13z"/>
<glyph unicode="&#96;" d="M329 256c0-5-2-9-5-13l-128-128c-4-3-8-5-13-5-5 0-9 2-13 5-4 4-5 8-5 13l0 256c0 5 1 9 5 13 4 3 8 5 13 5 5 0 9-2 13-5l128-128c3-4 5-8 5-13z"/>
<glyph unicode="&#123;" d="M402 201c0-5-2-9-5-13l-128-128c-4-3-8-5-13-5-5 0-9 2-13 5l-128 128c-3 4-5 8-5 13 0 5 2 9 5 13 4 4 8 5 13 5l256 0c5 0 9-1 13-5 3-4 5-8 5-13z"/>
<glyph unicode="&#124;" d="M402 311c0-5-2-9-5-13l-128-128c-4-4-8-5-13-5-5 0-9 1-13 5l-128 128c-3 4-5 8-5 13 0 5 2 9 5 13 4 3 8 5 13 5l256 0c5 0 9-2 13-5 3-4 5-8 5-13z"/>
<glyph unicode="&#125;" d="M256 37c-5 0-9 1-13 5l-178 172c-2 1-4 4-8 7-3 4-8 10-16 19-7 9-13 18-19 28-6 9-11 21-15 34-5 14-7 27-7 40 0 42 12 74 36 98 24 24 58 35 101 35 11 0 23-2 36-6 12-4 23-9 34-16 11-7 20-14 27-20 8-6 15-12 22-19 7 7 14 13 22 19 7 6 16 13 27 20 11 7 22 12 34 16 13 4 25 6 36 6 43 0 77-11 101-35 24-24 36-56 36-98 0-42-22-85-65-129l-178-171c-4-4-8-5-13-5z"/>
<glyph unicode="&#57344;" d="M165 384c0 10-4 19-11 26-7 7-16 11-26 11-10 0-19-4-26-11-7-7-11-16-11-26 0-10 4-19 11-26 7-7 16-11 26-11 10 0 19 4 26 11 7 7 11 16 11 26z m304-165c0-10-3-18-10-25l-140-141c-8-7-17-10-26-10-11 0-19 3-26 10l-204 205c-8 7-14 16-19 29-5 12-7 23-7 33l0 119c0 10 3 18 10 26 8 7 16 10 26 10l119 0c10 0 21-2 33-7 13-5 22-11 30-19l204-204c7-7 10-16 10-26z"/>
<glyph unicode="&#57345;" d="M119 375c0 10-3 18-10 25-6 6-14 10-24 10-9 0-17-4-24-10-6-7-10-15-10-25 0-9 4-17 10-24 7-6 15-10 24-10 10 0 18 4 24 10 7 7 10 15 10 24z m285-153c0-10-3-18-10-24l-131-131c-7-7-15-10-24-10-9 0-17 3-24 10l-191 191c-6 6-12 15-17 27-5 11-7 21-7 31l0 111c0 9 3 17 10 24 7 6 15 10 24 10l111 0c9 0 20-3 31-7 12-5 21-11 27-17l191-191c7-7 10-15 10-24z m102 0c0-10-3-18-9-24l-131-131c-7-7-15-10-25-10-6 0-11 1-15 4-4 2-9 6-15 12l126 125c6 6 10 14 10 24 0 9-4 17-10 24l-191 191c-7 6-16 12-27 17-11 4-22 7-31 7l59 0c10 0 20-3 32-7 11-5 20-11 27-17l191-191c6-7 9-15 9-24z"/>
<glyph unicode="&#126;" d="M469 461c12 0 22-4 30-13 9-8 13-18 13-30l0-324c0-12-4-22-13-30-8-9-18-13-30-13l-426 0c-12 0-22 4-30 13-9 8-13 18-13 30l0 324c0 12 4 22 13 30 8 9 18 13 30 13z m-426-34c-3 0-5-1-6-3-2-2-3-4-3-6l0-60 444 0 0 60c0 2-1 4-3 6-1 2-3 3-6 3z m426-342c3 0 5 1 6 3 2 2 3 4 3 6l0 162-444 0 0-162c0-2 1-4 3-6 1-2 3-3 6-3z m-401 34l0 35 69 0 0-35z m103 0l0 35 102 0 0-35z"/>
<glyph unicode="&#65;" d="M503 343l-160 160c-8 8-20 11-31 8-5-1-11-4-15-8-3-4-6-9-8-14-7-23-19-43-38-62-25-25-57-43-91-63-36-21-74-43-104-74-26-26-44-55-55-89-3-11 0-23 8-32l160-160c8-8 20-11 31-8 5 1 11 4 15 8 3 4 6 8 8 14 7 23 19 43 38 62 25 25 57 43 91 63 36 21 74 43 104 74 26 26 44 55 55 89 3 11 0 23-8 32z m-311-311c-53 53-107 107-160 160 45 147 243 141 288 288 53-53 107-107 160-160-45-147-243-141-288-288z m121 242c-5 4-10 7-16 8-5 2-10 2-16 2-5 0-10-2-16-4-5-2-10-4-16-7-8 10-17 20-26 29 4 4 8 5 12 6 3 0 7-1 10-2 3 0 7-1 9-2 3 0 6 0 8 2 2 2 4 5 4 8 0 3-1 6-4 9-3 4-7 6-12 7-5 1-10 1-15 0-5-1-10-3-15-6-4-3-8-5-10-8-2 1-3 2-4 3-1 1-2 2-4 2-2 0-3-1-4-3-1-1-2-2-2-4 0-2 1-3 2-4 1-1 2-2 3-3-4-5-7-10-10-16-2-6-4-11-5-17 0-6 0-11 2-15 2-5 5-9 10-13 7-6 16-9 26-8 11 0 22 3 33 10 10-11 19-22 29-32-4-4-8-6-11-6-3-1-6-1-8 0-3 1-5 2-7 3-2 2-4 3-6 4-2 1-5 2-7 2-2 0-4-1-7-3-2-3-4-5-4-8 0-3 2-6 4-9 3-4 7-6 11-8 4-2 9-3 14-4 6 0 11 1 17 3 6 2 12 6 18 12 2-3 5-6 8-8 1-1 3-2 4-2 2 1 4 1 5 3 1 1 1 3 1 4 0 2-1 3-2 4-3 3-5 5-8 7 5 6 8 12 11 19 3 6 5 12 5 17 1 6 0 11-1 15-2 5-5 9-10 13z m-89-11c-5 0-9 1-12 4-2 2-3 4-4 6 0 2 0 4 0 6 0 3 1 5 2 8 1 2 3 5 5 7 8-8 16-17 25-26-7-3-12-5-16-5z m75-32c-1-3-3-5-5-7-9 9-18 19-27 29 2 1 5 2 7 3 3 1 6 2 8 2 3 1 5 1 8 0 3-1 5-2 7-4 3-3 4-5 5-7 0-3 0-6 0-8-1-3-2-6-3-8z m-64-74l0 0c-10-8-19-16-28-25-9-8-17-18-24-27l-11-15 0 0c-2-3-1-7 1-10 4-3 9-3 12 0 0 1 1 1 1 2l10 14c7 8 14 17 22 25 9 9 17 16 27 24l0 0c1 0 1 0 1 0 3 3 3 8 0 12-3 3-7 3-11 0z m59 232c-8-9-17-16-27-24 0 0-1 0-2-1-3-3-3-8 0-11 3-3 8-3 12-1l0 0c10 8 19 16 28 25 9 9 17 18 24 27l11 15 0 0c2 4 2 8-1 11-3 4-8 4-11 0-1 0-1-1-2-2l-10-14c-7-9-14-17-22-25z"/>
<glyph unicode="&#92;" d="M141 148c0 0 60 60 60 60 0 0 0-150 0-150 0 0-142 9-142 9 0 0 45 44 45 44-39 41-59 91-58 148 1 57 21 107 62 148 34 34 75 53 122 59 0 0 2-52 2-52-34-6-63-21-88-45-30-30-45-67-46-109 0-43 14-80 43-112m170 307c0 0 142-9 142-9 0 0-45-44-45-44 39-41 59-91 58-148-1-57-21-107-62-148-32-33-73-53-122-60 0 0-1 53-1 53 33 6 62 21 87 45 30 30 45 67 46 109 0 43-14 80-43 112 0 0-59-60-59-60 0 0-1 150-1 150"/>
<glyph unicode="&#57346;" d="M117 271c10 57 68 119 138 119 41 0 77-18 102-47l34 23c-33 39-83 65-137 65-91 0-166-63-177-152l-77 15 76-112 111 76z m319 59l-111-76 70-13c-10-57-69-119-138-119-41 0-77 18-102 47l-34-23c33-39 83-65 137-65 91 0 166 63 177 152l77-15z"/>
<glyph unicode="&#57347;" d="M456 428c3-8 2-15-4-20l-141-141 0-212c0-8-4-14-11-17-3-1-5-1-7-1-6 0-10 1-13 5l-73 73c-4 4-6 8-6 13l0 139-141 141c-6 5-7 12-4 20 4 7 9 11 17 11l366 0c8 0 13-4 17-11z"/>
<glyph unicode="&#57348;" d="M283 77c0 0 0 51 0 51 0 0 50 0 50 0 0 0 0-51 0-51 0-14-5-26-15-36-10-10-22-15-36-15 0 0-205 0-205 0-14 0-26 5-36 15-10 10-15 22-15 36 0 0 0 358 0 358 0 15 5 27 15 37 10 9 22 14 36 14 0 0 205 0 205 0 14 0 26-5 36-14 10-10 15-22 15-37 0 0 0-77 0-77 0 0-50 0-50 0 0 0 0 77 0 77 0 0-206 0-206 0 0 0 0-358 0-358 0 0 206 0 206 0m203 167c0 0-101-101-101-101 0 0 0 62 0 62 0 0-230 0-230 0 0 0 0 77 0 77 0 0 230 0 230 0 0 0 0 61 0 61 0 0 101-99 101-99"/>
<glyph unicode="&#57349;" d="M402 165c0-5-2-10-5-13-4-4-8-6-13-6l-256 0c-5 0-9 2-13 6-3 3-5 8-5 13 0 5 2 9 5 12l128 128c4 4 8 6 13 6 5 0 9-2 13-6l128-128c3-3 5-7 5-12z"/>
<glyph unicode="&#57350;" d="M461 435c14 0 26-5 36-15 10-10 15-22 15-36 0 0 0-256 0-256 0-13-5-25-15-36-10-10-22-15-36-15 0 0-244 0-244 0-13 0-25 5-36 14 0 0-174 152-174 152-9 9-9 18 0 27 0 0 174 152 174 152 10 8 22 13 36 13 0 0 244 0 244 0m-72-281c0 0 37 38 37 38 0 0-65 64-65 64 0 0 65 65 65 65 0 0-37 37-37 37 0 0-65-64-65-64 0 0-65 64-65 64 0 0-37-37-37-37 0 0 65-65 65-65 0 0-65-64-65-64 0 0 37-38 37-38 0 0 65 65 65 65 0 0 65-65 65-65"/>
<glyph unicode="&#57351;" d="M55 37l82 0 0 82-82 0z m100 0l92 0 0 82-92 0z m-100 100l82 0 0 92-82 0z m100 0l92 0 0 92-92 0z m-100 110l82 0 0 82-82 0z m210-210l92 0 0 82-92 0z m-110 210l92 0 0 82-92 0z m220-210l82 0 0 82-82 0z m-110 100l92 0 0 92-92 0z m-100 247l0 82c0 3-1 5-3 7-2 2-4 2-7 2l-18 0c-2 0-4 0-6-2-2-2-3-4-3-7l0-82c0-2 1-5 3-6 2-2 4-3 6-3l18 0c3 0 5 1 7 3 2 1 3 4 3 6z m210-247l82 0 0 92-82 0z m-110 110l92 0 0 82-92 0z m110 0l82 0 0 82-82 0z m9 137l0 82c0 3-1 5-3 7-2 2-4 2-6 2l-18 0c-3 0-5 0-7-2-2-2-3-4-3-7l0-82c0-2 1-5 3-6 2-2 4-3 7-3l18 0c2 0 4 1 6 3 2 1 3 4 3 6z m110 18l0-365c0-10-4-19-11-26-7-7-16-11-26-11l-402 0c-10 0-19 4-26 11-7 7-11 16-11 26l0 365c0 10 4 19 11 26 7 7 16 11 26 11l36 0 0 27c0 13 5 24 14 33 9 9 20 13 32 13l18 0c13 0 24-4 33-13 9-9 13-20 13-33l0-27 110 0 0 27c0 13 4 24 13 33 9 9 20 13 33 13l18 0c12 0 23-4 32-13 9-9 14-20 14-33l0-27 36 0c10 0 19-4 26-11 7-7 11-16 11-26z"/>
<glyph unicode="&#57352;" d="M477 350c0-7-2-14-8-19l-206-207-39-39c-6-5-12-8-20-8-7 0-14 3-19 8l-142 142c-6 6-8 12-8 20 0 7 2 14 8 19l38 39c6 5 12 8 20 8 7 0 14-3 19-8l84-84 188 188c5 5 12 8 19 8 8 0 14-3 20-8l38-39c6-6 8-12 8-20z"/>
<glyph unicode="&#57353;" d="M451 249c0 0-99 0-99 0 0 0 0-179 0-179 0 0-192 0-192 0 0 0 0 179 0 179 0 0-99 0-99 0 0 0 195 194 195 194 0 0 195-194 195-194"/>
<glyph unicode="&#57354;" d="M367 176c6-6 9-13 9-22 0-8-3-16-9-22-6-5-13-8-22-8-8 0-16 3-22 8 0 0-68 78-68 78 0 0-67-78-67-78-6-5-14-8-22-8-9 0-16 3-22 8-6 6-8 14-8 22 0 9 2 16 8 22 0 0 71 80 71 80 0 0-71 81-71 81-6 6-8 13-8 22 0 8 2 16 8 22 6 5 13 8 22 8 8 0 16-3 22-8 0 0 67-78 67-78 0 0 68 78 68 78 6 5 14 8 22 8 9 0 16-3 22-8 6-6 9-14 9-22 0-9-3-16-9-22 0 0-71-81-71-81 0 0 71-80 71-80"/>
<glyph unicode="&#38;" d="M402 201c0-5-2-9-5-13l-128-128c-4-3-8-5-13-5-5 0-9 2-13 5l-128 128c-3 4-5 8-5 13 0 5 2 9 5 13 4 4 8 5 13 5l256 0c5 0 9-1 13-5 3-4 5-8 5-13z m0 110c0-5-2-9-5-13-4-4-8-5-13-5l-256 0c-5 0-9 1-13 5-3 4-5 8-5 13 0 5 2 9 5 13l128 128c4 3 8 5 13 5 5 0 9-2 13-5l128-128c3-4 5-8 5-13z"/>
</font>
</defs>
</svg>
